<?xml version="1.0" encoding="UTF-8"?>
<!DOCTYPE svg PUBLIC "-//W3C//DTD SVG 1.1//EN" "http://www.w3.org/Graphics/SVG/1.1/DTD/svg11.dtd">
<svg xmlns="http://www.w3.org/2000/svg" version="1.1" width="512px" height="512px" style="shape-rendering:geometricPrecision; text-rendering:geometricPrecision; image-rendering:optimizeQuality; fill-rule:evenodd; clip-rule:evenodd" xmlns:xlink="http://www.w3.org/1999/xlink">
<g><path style="opacity:0.994" fill="#000000" d="M 82.5,10.5 C 110.482,9.15065 123.149,22.484 120.5,50.5C 137.167,50.5 153.833,50.5 170.5,50.5C 168.314,20.5149 181.98,7.68152 211.5,12C 221.163,15.664 227.33,22.4974 230,32.5C 230.499,38.4908 230.666,44.4908 230.5,50.5C 247.167,50.5 263.833,50.5 280.5,50.5C 278.314,20.5149 291.98,7.68152 321.5,12C 331.163,15.664 337.33,22.4974 340,32.5C 340.499,38.4908 340.666,44.4908 340.5,50.5C 357.167,50.5 373.833,50.5 390.5,50.5C 388.314,20.5149 401.98,7.68152 431.5,12C 441.163,15.664 447.33,22.4974 450,32.5C 450.499,38.4908 450.666,44.4908 450.5,50.5C 460.172,50.3335 469.839,50.5002 479.5,51C 495.667,55.1667 505.833,65.3333 510,81.5C 510.667,210.833 510.667,340.167 510,469.5C 505.833,485.667 495.667,495.833 479.5,500C 330.167,500.667 180.833,500.667 31.5,500C 15.3333,495.833 5.16667,485.667 1,469.5C 0.333333,340.167 0.333333,210.833 1,81.5C 5.16667,65.3333 15.3333,55.1667 31.5,51C 41.1609,50.5002 50.8276,50.3335 60.5,50.5C 57.4935,31.1595 64.8269,17.8262 82.5,10.5 Z"/></g>
<g><path style="opacity:1" fill="#6c66da" d="M 86.5,30.5 C 92.3427,29.6745 96.8427,31.6745 100,36.5C 100.667,52.1667 100.667,67.8333 100,83.5C 96.9439,89.9426 92.1106,91.776 85.5,89C 83.1898,87.3626 81.6898,85.196 81,82.5C 80.3333,67.1667 80.3333,51.8333 81,36.5C 82.3597,33.9774 84.193,31.9774 86.5,30.5 Z"/></g>
<g><path style="opacity:1" fill="#6b66d9" d="M 196.5,30.5 C 202.343,29.6745 206.843,31.6745 210,36.5C 210.667,52.1667 210.667,67.8333 210,83.5C 206.944,89.9426 202.111,91.776 195.5,89C 193.19,87.3626 191.69,85.196 191,82.5C 190.333,67.1667 190.333,51.8333 191,36.5C 192.36,33.9774 194.193,31.9774 196.5,30.5 Z"/></g>
<g><path style="opacity:1" fill="#6b66d9" d="M 306.5,30.5 C 312.343,29.6745 316.843,31.6745 320,36.5C 320.667,52.1667 320.667,67.8333 320,83.5C 316.944,89.9426 312.111,91.776 305.5,89C 303.19,87.3626 301.69,85.196 301,82.5C 300.333,67.1667 300.333,51.8333 301,36.5C 302.36,33.9774 304.193,31.9774 306.5,30.5 Z"/></g>
<g><path style="opacity:1" fill="#6c66d9" d="M 416.5,30.5 C 422.343,29.6745 426.843,31.6745 430,36.5C 430.667,52.1667 430.667,67.8333 430,83.5C 426.944,89.9426 422.111,91.776 415.5,89C 413.19,87.3626 411.69,85.196 411,82.5C 410.333,67.1667 410.333,51.8333 411,36.5C 412.36,33.9774 414.193,31.9774 416.5,30.5 Z"/></g>
<g><path style="opacity:1" fill="#f4dc50" d="M 35.5,70.5 C 43.8333,70.5 52.1667,70.5 60.5,70.5C 57.8594,88.3915 64.526,101.225 80.5,109C 108.844,112.161 122.178,99.3273 120.5,70.5C 137.167,70.5 153.833,70.5 170.5,70.5C 167.797,89.9514 175.464,103.118 193.5,110C 220.315,110.68 232.648,97.5131 230.5,70.5C 247.167,70.5 263.833,70.5 280.5,70.5C 277.795,89.9461 285.461,103.113 303.5,110C 330.313,110.681 342.646,97.5147 340.5,70.5C 357.167,70.5 373.833,70.5 390.5,70.5C 387.862,88.3965 394.528,101.23 410.5,109C 438.838,112.167 452.172,99.3336 450.5,70.5C 458.84,70.3336 467.173,70.5003 475.5,71C 483,73.1667 487.833,78 490,85.5C 490.5,107.164 490.667,128.831 490.5,150.5C 333.833,150.5 177.167,150.5 20.5,150.5C 20.3334,128.831 20.5,107.164 21,85.5C 23.3509,77.9841 28.1842,72.9841 35.5,70.5 Z"/></g>
<g><path style="opacity:1" fill="#e4e3ee" d="M 20.5,170.5 C 177.167,170.5 333.833,170.5 490.5,170.5C 490.667,268.834 490.5,367.167 490,465.5C 487.833,473 483,477.833 475.5,480C 328.833,480.667 182.167,480.667 35.5,480C 28,477.833 23.1667,473 21,465.5C 20.5,367.167 20.3333,268.834 20.5,170.5 Z"/></g>
<g><path style="opacity:1" fill="#010101" d="M 66.5,200.5 C 81.837,200.333 97.1703,200.5 112.5,201C 120.674,204.212 122.508,209.712 118,217.5C 117.25,218.126 116.416,218.626 115.5,219C 103.91,220.436 92.243,220.936 80.5,220.5C 80.5,240.5 80.5,260.5 80.5,280.5C 91.1719,280.333 101.839,280.5 112.5,281C 120.674,284.212 122.508,289.712 118,297.5C 116.352,298.717 114.519,299.55 112.5,300C 97.5,300.667 82.5,300.667 67.5,300C 63.5936,299.027 61.427,296.527 61,292.5C 60.3333,264.167 60.3333,235.833 61,207.5C 61.9668,204.379 63.8001,202.046 66.5,200.5 Z"/></g>
<g><path style="opacity:1" fill="#010101" d="M 236.5,200.5 C 251.837,200.333 267.17,200.5 282.5,201C 290.674,204.212 292.508,209.712 288,217.5C 287.25,218.126 286.416,218.626 285.5,219C 273.91,220.436 262.243,220.936 250.5,220.5C 250.5,227.167 250.5,233.833 250.5,240.5C 261.172,240.333 271.839,240.5 282.5,241C 290.674,244.212 292.508,249.712 288,257.5C 286.352,258.717 284.519,259.55 282.5,260C 271.839,260.5 261.172,260.667 250.5,260.5C 250.5,267.167 250.5,273.833 250.5,280.5C 261.172,280.333 271.839,280.5 282.5,281C 290.674,284.212 292.508,289.712 288,297.5C 286.352,298.717 284.519,299.55 282.5,300C 267.5,300.667 252.5,300.667 237.5,300C 233.594,299.027 231.427,296.527 231,292.5C 230.333,264.167 230.333,235.833 231,207.5C 231.967,204.379 233.8,202.046 236.5,200.5 Z"/></g>
<g><path style="opacity:1" fill="#010101" d="M 316.5,200.5 C 331.837,200.333 347.17,200.5 362.5,201C 370.674,204.212 372.508,209.712 368,217.5C 367.25,218.126 366.416,218.626 365.5,219C 353.91,220.436 342.243,220.936 330.5,220.5C 330.5,240.5 330.5,260.5 330.5,280.5C 341.172,280.333 351.839,280.5 362.5,281C 370.674,284.212 372.508,289.712 368,297.5C 366.352,298.717 364.519,299.55 362.5,300C 347.5,300.667 332.5,300.667 317.5,300C 313.594,299.027 311.427,296.527 311,292.5C 310.333,264.167 310.333,235.833 311,207.5C 311.967,204.379 313.8,202.046 316.5,200.5 Z"/></g>
<g><path style="opacity:1" fill="#010101" d="M 146.5,200.5 C 152.816,199.573 157.316,201.906 160,207.5C 160.5,218.495 160.667,229.495 160.5,240.5C 170.5,240.5 180.5,240.5 190.5,240.5C 190.333,229.495 190.5,218.495 191,207.5C 194.718,200.052 200.218,198.552 207.5,203C 208.46,204.419 209.293,205.919 210,207.5C 210.667,235.833 210.667,264.167 210,292.5C 208.85,297.757 205.517,300.424 200,300.5C 196.48,300.079 193.813,298.413 192,295.5C 190.564,283.91 190.064,272.243 190.5,260.5C 180.5,260.5 170.5,260.5 160.5,260.5C 160.667,271.172 160.5,281.839 160,292.5C 158.155,298.679 153.988,301.179 147.5,300C 143.594,299.027 141.427,296.527 141,292.5C 140.333,264.167 140.333,235.833 141,207.5C 141.967,204.379 143.8,202.046 146.5,200.5 Z"/></g>
<g><path style="opacity:1" fill="#020202" d="M 396.5,200.5 C 402.816,199.573 407.316,201.906 410,207.5C 410.333,215.5 410.667,223.5 411,231.5C 418.5,222 426,212.5 433.5,203C 440.679,198.718 446.179,200.218 450,207.5C 450.841,211.12 450.174,214.454 448,217.5C 438.977,228.356 430.144,239.356 421.5,250.5C 431.484,262.473 440.984,274.806 450,287.5C 451.149,297.018 446.983,301.184 437.5,300C 436.167,299.333 434.833,298.667 433.5,298C 426,288.5 418.5,279 411,269.5C 410.667,277.167 410.333,284.833 410,292.5C 408.85,297.757 405.517,300.424 400,300.5C 396.48,300.079 393.813,298.413 392,295.5C 390.358,266.228 390.024,236.895 391,207.5C 391.967,204.379 393.8,202.046 396.5,200.5 Z"/></g>
<g><path style="opacity:1" fill="#020101" d="M 246.5,330.5 C 252.767,329.736 257.267,332.07 260,337.5C 260.5,345.159 260.666,352.826 260.5,360.5C 321.168,360.333 381.834,360.5 442.5,361C 446.527,361.427 449.027,363.594 450,367.5C 450.667,382.5 450.667,397.5 450,412.5C 449.5,417 447,419.5 442.5,420C 381.834,420.5 321.168,420.667 260.5,420.5C 260.906,428.917 260.406,437.251 259,445.5C 255.853,449.551 251.687,451.051 246.5,450C 227.333,432.167 208.833,413.667 191,394.5C 189.96,390.467 190.626,386.801 193,383.5C 210.728,365.604 228.562,347.938 246.5,330.5 Z"/></g>
<g><path style="opacity:1" fill="#010101" d="M 107.5,340.5 C 111.327,340.387 114.827,341.387 118,343.5C 128.416,360.668 139.083,377.668 150,394.5C 150.333,378.833 150.667,363.167 151,347.5C 155.016,339.822 160.682,338.489 168,343.5C 168.667,344.833 169.333,346.167 170,347.5C 170.667,375.833 170.667,404.167 170,432.5C 168.827,437.765 165.494,440.431 160,440.5C 157.272,440.443 154.939,439.443 153,437.5C 142.584,420.332 131.917,403.332 121,386.5C 120.956,402.9 120.289,419.233 119,435.5C 114.352,441.093 109.019,441.759 103,437.5C 102.138,435.913 101.471,434.246 101,432.5C 100.333,403.833 100.333,375.167 101,346.5C 102.494,343.686 104.66,341.686 107.5,340.5 Z"/></g>
<g><path style="opacity:1" fill="#010101" d="M 66.5,340.5 C 72.8157,339.573 77.3157,341.906 80,347.5C 80.6667,375.833 80.6667,404.167 80,432.5C 78.8501,437.757 75.5168,440.424 70,440.5C 64.9038,440.128 61.9038,437.461 61,432.5C 60.3333,404.167 60.3333,375.833 61,347.5C 61.9668,344.379 63.8001,342.046 66.5,340.5 Z"/></g>
<g><path style="opacity:1" fill="#de687c" d="M 239.5,365.5 C 240.163,369.518 241.33,373.518 243,377.5C 244.419,378.46 245.919,379.293 247.5,380C 308.499,380.5 369.499,380.667 430.5,380.5C 430.5,387.167 430.5,393.833 430.5,400.5C 369.499,400.333 308.499,400.5 247.5,401C 241.753,403.99 239.253,408.823 240,415.5C 231.652,407.319 223.486,398.986 215.5,390.5C 223.521,382.146 231.521,373.813 239.5,365.5 Z"/></g>
</svg>
