<?xml version="1.0" encoding="UTF-8"?>
<!DOCTYPE svg PUBLIC "-//W3C//DTD SVG 1.1//EN" "http://www.w3.org/Graphics/SVG/1.1/DTD/svg11.dtd">
<svg xmlns="http://www.w3.org/2000/svg" version="1.1" width="512px" height="512px" style="shape-rendering:geometricPrecision; text-rendering:geometricPrecision; image-rendering:optimizeQuality; fill-rule:evenodd; clip-rule:evenodd" xmlns:xlink="http://www.w3.org/1999/xlink">
<g><path style="opacity:0.994" fill="#000000" d="M 82.5,10.5 C 110.482,9.15065 123.149,22.484 120.5,50.5C 137.167,50.5 153.833,50.5 170.5,50.5C 168.314,20.5149 181.98,7.68152 211.5,12C 221.163,15.664 227.33,22.4974 230,32.5C 230.499,38.4908 230.666,44.4908 230.5,50.5C 247.167,50.5 263.833,50.5 280.5,50.5C 278.314,20.5149 291.98,7.68152 321.5,12C 331.163,15.664 337.33,22.4974 340,32.5C 340.499,38.4908 340.666,44.4908 340.5,50.5C 357.167,50.5 373.833,50.5 390.5,50.5C 388.314,20.5149 401.98,7.68152 431.5,12C 441.163,15.664 447.33,22.4974 450,32.5C 450.499,38.4908 450.666,44.4908 450.5,50.5C 460.172,50.3335 469.839,50.5002 479.5,51C 495.667,55.1667 505.833,65.3333 510,81.5C 510.667,210.833 510.667,340.167 510,469.5C 505.833,485.667 495.667,495.833 479.5,500C 330.167,500.667 180.833,500.667 31.5,500C 15.3333,495.833 5.16667,485.667 1,469.5C 0.333333,340.167 0.333333,210.833 1,81.5C 5.16667,65.3333 15.3333,55.1667 31.5,51C 41.1609,50.5002 50.8276,50.3335 60.5,50.5C 57.4935,31.1595 64.8269,17.8262 82.5,10.5 Z"/></g>
<g><path style="opacity:1" fill="#6b65d9" d="M 86.5,30.5 C 92.3427,29.6745 96.8427,31.6745 100,36.5C 100.667,52.1667 100.667,67.8333 100,83.5C 97.3175,89.257 92.8175,91.4237 86.5,90C 83.8647,88.0395 82.0314,85.5395 81,82.5C 80.3333,67.1667 80.3333,51.8333 81,36.5C 82.3597,33.9774 84.193,31.9774 86.5,30.5 Z"/></g>
<g><path style="opacity:1" fill="#6b66d9" d="M 196.5,30.5 C 202.343,29.6745 206.843,31.6745 210,36.5C 210.667,52.1667 210.667,67.8333 210,83.5C 206.944,89.9426 202.111,91.776 195.5,89C 193.19,87.3626 191.69,85.196 191,82.5C 190.333,67.1667 190.333,51.8333 191,36.5C 192.36,33.9774 194.193,31.9774 196.5,30.5 Z"/></g>
<g><path style="opacity:1" fill="#6b66d9" d="M 306.5,30.5 C 312.343,29.6745 316.843,31.6745 320,36.5C 320.667,52.1667 320.667,67.8333 320,83.5C 316.944,89.9426 312.111,91.776 305.5,89C 303.19,87.3626 301.69,85.196 301,82.5C 300.333,67.1667 300.333,51.8333 301,36.5C 302.36,33.9774 304.193,31.9774 306.5,30.5 Z"/></g>
<g><path style="opacity:1" fill="#6c66da" d="M 416.5,30.5 C 422.343,29.6745 426.843,31.6745 430,36.5C 430.667,52.1667 430.667,67.8333 430,83.5C 427.318,89.257 422.818,91.4237 416.5,90C 413.865,88.0395 412.031,85.5395 411,82.5C 410.333,67.1667 410.333,51.8333 411,36.5C 412.36,33.9774 414.193,31.9774 416.5,30.5 Z"/></g>
<g><path style="opacity:1" fill="#f4dc50" d="M 35.5,70.5 C 43.8333,70.5 52.1667,70.5 60.5,70.5C 57.8501,88.3721 64.5167,101.205 80.5,109C 108.867,112.138 122.2,99.3044 120.5,70.5C 137.167,70.5 153.833,70.5 170.5,70.5C 167.859,88.3915 174.526,101.225 190.5,109C 218.844,112.161 232.178,99.3273 230.5,70.5C 247.167,70.5 263.833,70.5 280.5,70.5C 277.859,88.3915 284.526,101.225 300.5,109C 328.838,112.167 342.172,99.3336 340.5,70.5C 357.167,70.5 373.833,70.5 390.5,70.5C 387.797,89.9514 395.464,103.118 413.5,110C 440.313,110.681 452.646,97.5147 450.5,70.5C 458.84,70.3336 467.173,70.5003 475.5,71C 483,73.1667 487.833,78 490,85.5C 490.5,107.164 490.667,128.831 490.5,150.5C 333.833,150.5 177.167,150.5 20.5,150.5C 20.3334,128.831 20.5,107.164 21,85.5C 23.3509,77.9841 28.1842,72.9841 35.5,70.5 Z"/></g>
<g><path style="opacity:1" fill="#e4e3ee" d="M 20.5,170.5 C 177.167,170.5 333.833,170.5 490.5,170.5C 490.667,268.834 490.5,367.167 490,465.5C 487.833,473 483,477.833 475.5,480C 328.833,480.667 182.167,480.667 35.5,480C 28,477.833 23.1667,473 21,465.5C 20.5,367.167 20.3333,268.834 20.5,170.5 Z"/></g>
<g><path style="opacity:1" fill="#010101" d="M 66.5,200.5 C 81.837,200.333 97.1703,200.5 112.5,201C 120.674,204.212 122.508,209.712 118,217.5C 117.25,218.126 116.416,218.626 115.5,219C 103.91,220.436 92.243,220.936 80.5,220.5C 80.5,240.5 80.5,260.5 80.5,280.5C 91.1719,280.333 101.839,280.5 112.5,281C 120.674,284.212 122.508,289.712 118,297.5C 116.352,298.717 114.519,299.55 112.5,300C 97.5,300.667 82.5,300.667 67.5,300C 63.5936,299.027 61.427,296.527 61,292.5C 60.3333,264.167 60.3333,235.833 61,207.5C 61.9668,204.379 63.8001,202.046 66.5,200.5 Z"/></g>
<g><path style="opacity:1" fill="#010101" d="M 236.5,200.5 C 251.837,200.333 267.17,200.5 282.5,201C 290.674,204.212 292.508,209.712 288,217.5C 287.25,218.126 286.416,218.626 285.5,219C 273.91,220.436 262.243,220.936 250.5,220.5C 250.5,227.167 250.5,233.833 250.5,240.5C 261.172,240.333 271.839,240.5 282.5,241C 290.674,244.212 292.508,249.712 288,257.5C 286.352,258.717 284.519,259.55 282.5,260C 271.839,260.5 261.172,260.667 250.5,260.5C 250.5,267.167 250.5,273.833 250.5,280.5C 261.172,280.333 271.839,280.5 282.5,281C 290.674,284.212 292.508,289.712 288,297.5C 286.352,298.717 284.519,299.55 282.5,300C 267.5,300.667 252.5,300.667 237.5,300C 233.594,299.027 231.427,296.527 231,292.5C 230.333,264.167 230.333,235.833 231,207.5C 231.967,204.379 233.8,202.046 236.5,200.5 Z"/></g>
<g><path style="opacity:1" fill="#010101" d="M 316.5,200.5 C 331.837,200.333 347.17,200.5 362.5,201C 370.674,204.212 372.508,209.712 368,217.5C 367.25,218.126 366.416,218.626 365.5,219C 353.91,220.436 342.243,220.936 330.5,220.5C 330.5,240.5 330.5,260.5 330.5,280.5C 341.172,280.333 351.839,280.5 362.5,281C 370.674,284.212 372.508,289.712 368,297.5C 366.352,298.717 364.519,299.55 362.5,300C 347.5,300.667 332.5,300.667 317.5,300C 313.594,299.027 311.427,296.527 311,292.5C 310.333,264.167 310.333,235.833 311,207.5C 311.967,204.379 313.8,202.046 316.5,200.5 Z"/></g>
<g><path style="opacity:1" fill="#010101" d="M 146.5,200.5 C 152.816,199.573 157.316,201.906 160,207.5C 160.5,218.495 160.667,229.495 160.5,240.5C 170.5,240.5 180.5,240.5 190.5,240.5C 190.333,229.495 190.5,218.495 191,207.5C 194.718,200.052 200.218,198.552 207.5,203C 208.46,204.419 209.293,205.919 210,207.5C 210.667,235.833 210.667,264.167 210,292.5C 208.85,297.757 205.517,300.424 200,300.5C 196.48,300.079 193.813,298.413 192,295.5C 190.564,283.91 190.064,272.243 190.5,260.5C 180.5,260.5 170.5,260.5 160.5,260.5C 160.667,271.172 160.5,281.839 160,292.5C 158.155,298.679 153.988,301.179 147.5,300C 143.594,299.027 141.427,296.527 141,292.5C 140.333,264.167 140.333,235.833 141,207.5C 141.967,204.379 143.8,202.046 146.5,200.5 Z"/></g>
<g><path style="opacity:1" fill="#020202" d="M 396.5,200.5 C 402.816,199.573 407.316,201.906 410,207.5C 410.333,215.5 410.667,223.5 411,231.5C 418.5,222 426,212.5 433.5,203C 440.679,198.718 446.179,200.218 450,207.5C 450.841,211.12 450.174,214.454 448,217.5C 438.977,228.356 430.144,239.356 421.5,250.5C 431.484,262.473 440.984,274.806 450,287.5C 451.149,297.018 446.983,301.184 437.5,300C 436.167,299.333 434.833,298.667 433.5,298C 426,288.5 418.5,279 411,269.5C 410.667,277.167 410.333,284.833 410,292.5C 408.85,297.757 405.517,300.424 400,300.5C 396.48,300.079 393.813,298.413 392,295.5C 390.358,266.228 390.024,236.895 391,207.5C 391.967,204.379 393.8,202.046 396.5,200.5 Z"/></g>
<g><path style="opacity:1" fill="#030203" d="M 387.5,330.5 C 391.059,330.408 394.392,331.241 397.5,333C 414.333,349.833 431.167,366.667 448,383.5C 451.315,388.652 450.982,393.652 447,398.5C 430.138,415.696 412.972,432.529 395.5,449C 388.335,451.832 383.501,449.665 381,442.5C 380.5,435.174 380.334,427.841 380.5,420.5C 359.497,420.667 338.497,420.5 317.5,420C 313.594,419.027 311.427,416.527 311,412.5C 310.333,397.5 310.333,382.5 311,367.5C 311.786,364.417 313.619,362.251 316.5,361C 337.831,360.5 359.164,360.333 380.5,360.5C 380.334,352.493 380.5,344.493 381,336.5C 382.494,333.686 384.66,331.686 387.5,330.5 Z"/></g>
<g><path style="opacity:1" fill="#000000" d="M 66.5,340.5 C 81.837,340.333 97.1703,340.5 112.5,341C 116.527,341.427 119.027,343.594 120,347.5C 120.667,375.833 120.667,404.167 120,432.5C 119.5,437 117,439.5 112.5,440C 97.5,440.667 82.5,440.667 67.5,440C 63.5936,439.027 61.427,436.527 61,432.5C 60.3333,404.167 60.3333,375.833 61,347.5C 61.9668,344.379 63.8001,342.046 66.5,340.5 Z"/></g>
<g><path style="opacity:1" fill="#010101" d="M 236.5,340.5 C 251.837,340.333 267.17,340.5 282.5,341C 290.674,344.212 292.508,349.712 288,357.5C 282.514,360.171 276.68,361.171 270.5,360.5C 270.667,384.502 270.5,408.502 270,432.5C 268.85,437.757 265.517,440.424 260,440.5C 254.904,440.128 251.904,437.461 251,432.5C 250.5,408.502 250.333,384.502 250.5,360.5C 246.154,360.666 241.821,360.499 237.5,360C 232.047,357.596 229.881,353.429 231,347.5C 231.967,344.379 233.8,342.046 236.5,340.5 Z"/></g>
<g><path style="opacity:1" fill="#000001" d="M 146.5,340.5 C 152.816,339.573 157.316,341.906 160,347.5C 160.5,371.831 160.667,396.164 160.5,420.5C 170.5,420.5 180.5,420.5 190.5,420.5C 190.333,396.164 190.5,371.831 191,347.5C 195.016,339.822 200.682,338.489 208,343.5C 208.667,344.833 209.333,346.167 210,347.5C 210.667,375.833 210.667,404.167 210,432.5C 209.5,437 207,439.5 202.5,440C 184.167,440.667 165.833,440.667 147.5,440C 143.594,439.027 141.427,436.527 141,432.5C 140.333,404.167 140.333,375.833 141,347.5C 141.967,344.379 143.8,342.046 146.5,340.5 Z"/></g>
<g><path style="opacity:1" fill="#e4e4ee" d="M 80.5,360.5 C 87.1667,360.5 93.8333,360.5 100.5,360.5C 100.5,380.5 100.5,400.5 100.5,420.5C 93.8333,420.5 87.1667,420.5 80.5,420.5C 80.5,400.5 80.5,380.5 80.5,360.5 Z"/></g>
<g><path style="opacity:1" fill="#ba98fe" d="M 400.5,365.5 C 409.146,373.479 417.479,381.812 425.5,390.5C 417.514,398.986 409.348,407.319 401,415.5C 400.969,411.232 399.969,407.232 398,403.5C 396.352,402.283 394.519,401.45 392.5,401C 371.836,400.5 351.169,400.333 330.5,400.5C 330.5,393.833 330.5,387.167 330.5,380.5C 351.169,380.667 371.836,380.5 392.5,380C 398.98,377.471 401.647,372.638 400.5,365.5 Z"/></g>
</svg>
