<?xml version="1.0" encoding="UTF-8"?>
<!DOCTYPE svg PUBLIC "-//W3C//DTD SVG 1.1//EN" "http://www.w3.org/Graphics/SVG/1.1/DTD/svg11.dtd">
<svg xmlns="http://www.w3.org/2000/svg" version="1.1" width="512px" height="512px" style="shape-rendering:geometricPrecision; text-rendering:geometricPrecision; image-rendering:optimizeQuality; fill-rule:evenodd; clip-rule:evenodd" xmlns:xlink="http://www.w3.org/1999/xlink">
<g><path style="opacity:0.984" fill="#020202" d="M 232.5,-0.5 C 247.833,-0.5 263.167,-0.5 278.5,-0.5C 358.893,9.09801 422.393,46.7647 469,112.5C 492.821,149.131 506.987,189.131 511.5,232.5C 511.5,247.833 511.5,263.167 511.5,278.5C 501.695,362.756 461.362,427.923 390.5,474C 355.578,495.03 317.912,507.53 277.5,511.5C 262.833,511.5 248.167,511.5 233.5,511.5C 133.194,499.017 61.694,447.017 19,355.5C 8.86452,330.623 2.36452,304.957 -0.5,278.5C -0.5,263.167 -0.5,247.833 -0.5,232.5C 9.09756,152.108 46.7642,88.6077 112.5,42C 149.131,18.1794 189.131,4.01272 232.5,-0.5 Z"/></g>
<g><path style="opacity:1" fill="#cae1fe" d="M 255.5,14.5 C 348.119,42.6194 407.619,103.286 434,196.5C 446.709,251.106 442.042,304.106 420,355.5C 419.329,356.252 418.496,356.586 417.5,356.5C 413.687,354.092 409.687,351.925 405.5,350C 387.561,344.131 369.561,338.465 351.5,333C 336.323,324.911 320.99,317.078 305.5,309.5C 304.167,302.167 304.167,294.833 305.5,287.5C 325.371,272.443 337.038,252.443 340.5,227.5C 348.464,225.369 353.63,220.369 356,212.5C 356.96,182.46 356.627,152.46 355,122.5C 349.465,108.658 339.299,101.658 324.5,101.5C 323.846,86.6803 316.513,76.847 302.5,72C 270.214,70.3625 237.881,70.0292 205.5,71C 175.608,78.4433 158.608,97.4433 154.5,128C 153.7,134.26 156.367,137.76 162.5,138.5C 162.5,145.167 162.5,151.833 162.5,158.5C 158.83,158.327 156.33,159.993 155,163.5C 154.333,179.833 154.333,196.167 155,212.5C 157.501,220.835 163.001,225.835 171.5,227.5C 174.039,252.588 185.373,272.588 205.5,287.5C 206.833,294.833 206.833,302.167 205.5,309.5C 189.802,317.349 174.136,325.182 158.5,333C 142.439,337.798 126.439,342.798 110.5,348C 84.5188,358.455 70.0188,377.622 67,405.5C 19.6836,343.823 4.35027,274.823 21,198.5C 41.0632,123.775 85.8965,69.6086 155.5,36C 187.252,21.5626 220.585,14.396 255.5,14.5 Z"/></g>
<g><path style="opacity:1" fill="#bdd7fa" d="M 255.5,14.5 C 343.514,16.9108 411.681,54.5774 460,127.5C 501.474,198.21 507.474,271.877 478,348.5C 469.449,369.287 458.115,388.287 444,405.5C 442.461,385.08 433.627,368.746 417.5,356.5C 418.496,356.586 419.329,356.252 420,355.5C 442.042,304.106 446.709,251.106 434,196.5C 407.619,103.286 348.119,42.6194 255.5,14.5 Z"/></g>
<g><path style="opacity:1" fill="#355d7c" d="M 207.5,86.5 C 233.5,86.5 259.5,86.5 285.5,86.5C 285.5,102.833 285.5,119.167 285.5,135.5C 283.123,136.887 280.457,137.721 277.5,138C 257.181,140.942 237.181,139.609 217.5,134C 202.417,131.454 192.25,137.287 187,151.5C 186.667,157.167 186.333,162.833 186,168.5C 185.167,171.333 183.333,173.167 180.5,174C 176.848,174.499 173.182,174.665 169.5,174.5C 169.666,170.486 169.499,166.486 169,162.5C 167.728,159.778 165.561,158.444 162.5,158.5C 162.5,151.833 162.5,145.167 162.5,138.5C 165.195,138.067 167.362,136.734 169,134.5C 169.917,108.766 182.751,92.7657 207.5,86.5 Z"/></g>
<g><path style="opacity:1" fill="#2a4c64" d="M 207.5,86.5 C 237.664,85.3361 267.997,85.1694 298.5,86C 307.266,90.4449 311.433,97.6115 311,107.5C 313.222,111.388 316.388,114.221 320.5,116C 329.053,115.173 335.553,118.34 340,125.5C 341.455,141.763 341.955,158.096 341.5,174.5C 337.486,174.666 333.486,174.499 329.5,174C 327.274,172.773 325.774,170.939 325,168.5C 326.433,139.971 313.266,128.971 285.5,135.5C 285.5,119.167 285.5,102.833 285.5,86.5C 259.5,86.5 233.5,86.5 207.5,86.5 Z"/></g>
<g><path style="opacity:1" fill="#fedccd" d="M 282.5,152.5 C 283.5,152.5 284.5,152.5 285.5,152.5C 285.953,183.203 285.453,213.87 284,244.5C 280.279,262.027 271.779,276.694 258.5,288.5C 227.038,288.855 204.538,274.855 191,246.5C 188.047,236.531 185.38,226.531 183,216.5C 178.893,213.913 174.559,211.913 170,210.5C 169.5,203.508 169.334,196.508 169.5,189.5C 193.87,190.625 204.704,178.958 202,154.5C 204.768,148.828 209.268,146.994 215.5,149C 237.573,154.857 259.906,156.024 282.5,152.5 Z"/></g>
<g><path style="opacity:1" fill="#fdc9bc" d="M 258.5,288.5 C 271.779,276.694 280.279,262.027 284,244.5C 285.453,213.87 285.953,183.203 285.5,152.5C 284.5,152.5 283.5,152.5 282.5,152.5C 289.52,149.848 296.854,148.682 304.5,149C 306.378,150.543 307.878,152.376 309,154.5C 306.329,178.99 317.163,190.657 341.5,189.5C 341.666,196.175 341.5,202.842 341,209.5C 340.626,210.416 340.126,211.25 339.5,212C 333.566,212.048 329.066,214.548 326,219.5C 321.792,260.54 299.292,283.54 258.5,288.5 Z"/></g>
<g><path style="opacity:1" fill="#fbdacb" d="M 221.5,297.5 C 244.119,305.429 266.786,305.429 289.5,297.5C 289.666,302.179 289.499,306.845 289,311.5C 278.325,324.339 267.491,337.006 256.5,349.5C 244.844,337.009 233.344,324.342 222,311.5C 221.501,306.845 221.334,302.179 221.5,297.5 Z"/></g>
<g><path style="opacity:1" fill="#eef5f9" d="M 215.5,327.5 C 225.45,338.454 235.45,349.454 245.5,360.5C 238.456,366.88 231.122,372.88 223.5,378.5C 219.566,375.395 216.066,371.729 213,367.5C 211.791,354.004 212.624,340.671 215.5,327.5 Z"/></g>
<g><path style="opacity:1" fill="#eff6fa" d="M 293.5,328.5 C 294.75,328.577 295.583,329.244 296,330.5C 298.449,342.713 299.115,355.046 298,367.5C 295.281,371.72 291.781,375.054 287.5,377.5C 280.247,372.585 273.581,366.919 267.5,360.5C 276.592,350.085 285.259,339.418 293.5,328.5 Z"/></g>
<g><path style="opacity:1" fill="#355c7a" d="M 197.5,329.5 C 198.497,329.47 199.164,329.97 199.5,331C 196.092,361.156 199.259,390.656 209,419.5C 215.31,438.441 221.977,457.107 229,475.5C 209.409,456.589 192.076,435.922 177,413.5C 174.06,407.954 171.394,402.287 169,396.5C 168.333,394.833 168.333,393.167 169,391.5C 175.917,386.284 179.75,379.451 180.5,371C 180.507,367.742 180.007,364.575 179,361.5C 175.189,355.889 172.522,349.889 171,343.5C 179.974,338.932 188.807,334.265 197.5,329.5 Z"/></g>
<g><path style="opacity:1" fill="#355c7b" d="M 339.5,417.5 C 336.607,423.388 332.94,428.722 328.5,433.5C 325.416,432.016 322.416,432.182 319.5,434C 307.74,448.431 295.24,462.264 282,475.5C 292.424,449.894 301.09,423.56 308,396.5C 313.492,374.345 314.825,352.012 312,329.5C 321.213,333.856 330.379,338.356 339.5,343C 340.022,343.561 340.355,344.228 340.5,345C 338.057,350.719 335.224,356.219 332,361.5C 328.457,368.363 328.79,375.029 333,381.5C 335.63,385.132 338.63,388.465 342,391.5C 342.667,393.167 342.667,394.833 342,396.5C 339.877,401.075 338.044,405.742 336.5,410.5C 336.695,413.218 337.695,415.551 339.5,417.5 Z"/></g>
<g><path style="opacity:1" fill="#497fa8" d="M 153.5,349.5 C 154.675,349.281 155.675,349.614 156.5,350.5C 159.969,357.272 163.303,364.105 166.5,371C 161.58,375.922 157.413,381.422 154,387.5C 153.236,397.553 155.569,406.886 161,415.5C 179.444,444.296 201.277,470.463 226.5,494C 170.231,487.448 122.398,463.948 83,423.5C 78.3275,398.031 86.8275,378.531 108.5,365C 123.571,359.7 138.571,354.533 153.5,349.5 Z"/></g>
<g><path style="opacity:1" fill="#497fa8" d="M 411.5,371.5 C 386.255,420.079 348.922,456.079 299.5,479.5C 310.204,468.297 320.37,456.63 330,444.5C 332.158,440.461 331.658,436.794 328.5,433.5C 332.94,428.722 336.607,423.388 339.5,417.5C 343.459,419.208 346.959,418.542 350,415.5C 355.793,406.997 358.126,397.663 357,387.5C 353.587,381.422 349.42,375.922 344.5,371C 347.703,363.424 351.536,356.257 356,349.5C 369.76,354.198 383.594,358.698 397.5,363C 402.697,365.092 407.364,367.926 411.5,371.5 Z"/></g>
<g><path style="opacity:1" fill="#d8606b" d="M 255.5,371.5 C 260.289,375.078 264.956,378.911 269.5,383C 267.5,385.667 265.5,388.333 263.5,391C 258.167,391.667 252.833,391.667 247.5,391C 245.126,388.961 243.126,386.628 241.5,384C 246.361,379.968 251.028,375.801 255.5,371.5 Z"/></g>
<g><path style="opacity:1" fill="#3f6f92" d="M 411.5,371.5 C 420.308,378.767 425.808,388.1 428,399.5C 428.667,407.5 428.667,415.5 428,423.5C 388.591,463.954 340.758,487.454 284.5,494C 289.369,488.963 294.369,484.13 299.5,479.5C 348.922,456.079 386.255,420.079 411.5,371.5 Z"/></g>
<g><path style="opacity:1" fill="#dbecf5" d="M 281.5,391.5 C 285.169,392.751 288.836,392.751 292.5,391.5C 292.833,392.333 293.167,393.167 293.5,394C 290.41,405.939 286.91,417.772 283,429.5C 279.957,420.496 277.457,411.329 275.5,402C 276.866,398.135 278.866,394.635 281.5,391.5 Z"/></g>
<g><path style="opacity:1" fill="#dcedf6" d="M 217.5,392.5 C 221.493,393.567 225.493,393.734 229.5,393C 233.293,396.062 235.126,399.896 235,404.5C 233.131,412.978 230.798,421.311 228,429.5C 223.781,417.348 220.281,405.014 217.5,392.5 Z"/></g>
<g><path style="opacity:1" fill="#dd7d83" d="M 249.5,406.5 C 253.555,406.176 257.555,406.509 261.5,407.5C 265.655,423.118 269.655,438.785 273.5,454.5C 268.307,467.885 262.307,480.885 255.5,493.5C 248.693,480.885 242.693,467.885 237.5,454.5C 241.505,438.482 245.505,422.482 249.5,406.5 Z"/></g>
</svg>
