<?xml version="1.0" encoding="UTF-8"?>
<!DOCTYPE svg PUBLIC "-//W3C//DTD SVG 1.1//EN" "http://www.w3.org/Graphics/SVG/1.1/DTD/svg11.dtd">
<svg xmlns="http://www.w3.org/2000/svg" version="1.1" width="512px" height="512px" style="shape-rendering:geometricPrecision; text-rendering:geometricPrecision; image-rendering:optimizeQuality; fill-rule:evenodd; clip-rule:evenodd" xmlns:xlink="http://www.w3.org/1999/xlink">
<g><path style="opacity:0.992" fill="#fab300" d="M 235.5,79.5 C 235.5,82.1667 235.5,84.8333 235.5,87.5C 211.5,87.5 187.5,87.5 163.5,87.5C 163.5,84.8333 163.5,82.1667 163.5,79.5C 163.177,71.9807 166.51,66.814 173.5,64C 190.833,63.3333 208.167,63.3333 225.5,64C 232.49,66.814 235.823,71.9807 235.5,79.5 Z"/></g>
<g><path style="opacity:0.999" fill="#c70a4f" d="M 163.5,79.5 C 163.5,82.1667 163.5,84.8333 163.5,87.5C 163.5,90.1667 163.5,92.8333 163.5,95.5C 152.397,95.0455 141.397,95.5455 130.5,97C 129.299,97.9025 128.465,99.0692 128,100.5C 127.5,106.825 127.334,113.158 127.5,119.5C 115.829,119.333 104.162,119.5 92.5,120C 90.3333,120.833 88.8333,122.333 88,124.5C 87.1718,214.874 87.3385,305.207 88.5,395.5C 86.7193,400.323 88.0526,404.156 92.5,407C 157.5,407.333 222.5,407.667 287.5,408C 292.319,416.482 297.986,424.315 304.5,431.5C 227.499,431.667 150.499,431.5 73.5,431C 69,429.167 65.8333,426 64,421.5C 63.3333,310.833 63.3333,200.167 64,89.5C 65.8333,85 69,81.8333 73.5,80C 103.498,79.5 133.498,79.3334 163.5,79.5 Z"/></g>
<g><path style="opacity:0.999" fill="#c80a4f" d="M 235.5,79.5 C 265.502,79.3334 295.502,79.5 325.5,80C 330,81.8333 333.167,85 335,89.5C 335.5,154.166 335.667,218.832 335.5,283.5C 326.912,287.129 318.912,291.795 311.5,297.5C 311.667,239.832 311.5,182.166 311,124.5C 309.891,122.185 308.057,120.685 305.5,120C 294.172,119.5 282.838,119.333 271.5,119.5C 271.666,113.158 271.5,106.825 271,100.5C 270.535,99.0692 269.701,97.9025 268.5,97C 257.578,95.5688 246.578,95.0688 235.5,95.5C 235.5,92.8333 235.5,90.1667 235.5,87.5C 235.5,84.8333 235.5,82.1667 235.5,79.5 Z"/></g>
<g><path style="opacity:1" fill="#db9600" d="M 163.5,87.5 C 187.5,87.5 211.5,87.5 235.5,87.5C 235.5,90.1667 235.5,92.8333 235.5,95.5C 211.5,95.5 187.5,95.5 163.5,95.5C 163.5,92.8333 163.5,90.1667 163.5,87.5 Z"/></g>
<g><path style="opacity:1" fill="#f9b300" d="M 163.5,95.5 C 187.5,95.5 211.5,95.5 235.5,95.5C 246.578,95.0688 257.578,95.5688 268.5,97C 269.701,97.9025 270.535,99.0692 271,100.5C 271.5,106.825 271.666,113.158 271.5,119.5C 271.5,123.167 271.5,126.833 271.5,130.5C 270.354,132.475 268.687,133.975 266.5,135C 221.833,135.667 177.167,135.667 132.5,135C 130.313,133.975 128.646,132.475 127.5,130.5C 127.5,126.833 127.5,123.167 127.5,119.5C 127.334,113.158 127.5,106.825 128,100.5C 128.465,99.0692 129.299,97.9025 130.5,97C 141.397,95.5455 152.397,95.0455 163.5,95.5 Z"/></g>
<g><path style="opacity:1" fill="#1e5374" d="M 148.5,107.5 C 159.167,108.003 161.833,112.836 156.5,122C 147.42,125.215 143.253,122.048 144,112.5C 145.025,110.313 146.525,108.646 148.5,107.5 Z"/></g>
<g><path style="opacity:1" fill="#1e5374" d="M 244.5,107.5 C 255.167,108.003 257.833,112.836 252.5,122C 243.42,125.215 239.253,122.048 240,112.5C 241.025,110.313 242.525,108.646 244.5,107.5 Z"/></g>
<g><path style="opacity:1" fill="#efefef" d="M 127.5,119.5 C 127.5,123.167 127.5,126.833 127.5,130.5C 127.301,133.941 127.801,137.274 129,140.5C 129.903,141.701 131.069,142.535 132.5,143C 176.833,143.667 221.167,143.667 265.5,143C 267.329,142.727 268.829,141.893 270,140.5C 271.199,137.274 271.699,133.941 271.5,130.5C 271.5,126.833 271.5,123.167 271.5,119.5C 282.838,119.333 294.172,119.5 305.5,120C 308.057,120.685 309.891,122.185 311,124.5C 311.5,182.166 311.667,239.832 311.5,297.5C 279.601,325.769 271.601,359.769 287.5,399.5C 222.499,399.667 157.499,399.5 92.5,399C 90.6763,398.34 89.343,397.173 88.5,395.5C 87.3385,305.207 87.1718,214.874 88,124.5C 88.8333,122.333 90.3333,120.833 92.5,120C 104.162,119.5 115.829,119.333 127.5,119.5 Z"/></g>
<g><path style="opacity:1" fill="#d2d2d1" d="M 127.5,130.5 C 128.646,132.475 130.313,133.975 132.5,135C 177.167,135.667 221.833,135.667 266.5,135C 268.687,133.975 270.354,132.475 271.5,130.5C 271.699,133.941 271.199,137.274 270,140.5C 268.829,141.893 267.329,142.727 265.5,143C 221.167,143.667 176.833,143.667 132.5,143C 131.069,142.535 129.903,141.701 129,140.5C 127.801,137.274 127.301,133.941 127.5,130.5 Z"/></g>
<g><path style="opacity:1" fill="#0d5178" d="M 231.5,191.5 C 228.833,191.5 226.167,191.5 223.5,191.5C 207.5,191.5 191.5,191.5 175.5,191.5C 172.833,191.5 170.167,191.5 167.5,191.5C 167.334,184.492 167.5,177.492 168,170.5C 173.327,159.59 181.494,156.757 192.5,162C 195.4,164.397 197.733,167.23 199.5,170.5C 205.125,159.687 213.458,156.854 224.5,162C 227.433,164.264 229.6,167.098 231,170.5C 231.5,177.492 231.666,184.492 231.5,191.5 Z"/></g>
<g><path style="opacity:1" fill="#d2aa82" d="M 167.5,191.5 C 170.167,191.5 172.833,191.5 175.5,191.5C 175.666,200.173 175.5,208.84 175,217.5C 174.15,221.513 171.65,223.513 167.5,223.5C 167.5,215.5 167.5,207.5 167.5,199.5C 167.5,196.833 167.5,194.167 167.5,191.5 Z"/></g>
<g><path style="opacity:1" fill="#efc7a0" d="M 175.5,191.5 C 191.5,191.5 207.5,191.5 223.5,191.5C 223.334,200.173 223.5,208.84 224,217.5C 224.863,221.518 227.363,223.518 231.5,223.5C 230.788,235.603 225.455,244.936 215.5,251.5C 204.786,256.73 194.119,256.73 183.5,251.5C 173.561,244.972 168.228,235.639 167.5,223.5C 171.65,223.513 174.15,221.513 175,217.5C 175.5,208.84 175.666,200.173 175.5,191.5 Z"/></g>
<g><path style="opacity:1" fill="#d2aa82" d="M 223.5,191.5 C 226.167,191.5 228.833,191.5 231.5,191.5C 231.5,194.167 231.5,196.833 231.5,199.5C 231.5,207.5 231.5,215.5 231.5,223.5C 227.363,223.518 224.863,221.518 224,217.5C 223.5,208.84 223.334,200.173 223.5,191.5 Z"/></g>
<g><path style="opacity:1" fill="#f0c8a1" d="M 167.5,199.5 C 167.5,207.5 167.5,215.5 167.5,223.5C 157.081,221.574 153.581,215.574 157,205.5C 159.436,201.55 162.936,199.55 167.5,199.5 Z"/></g>
<g><path style="opacity:1" fill="#f0c8a1" d="M 231.5,199.5 C 241.938,201.44 245.438,207.44 242,217.5C 239.576,221.432 236.076,223.432 231.5,223.5C 231.5,215.5 231.5,207.5 231.5,199.5 Z"/></g>
<g><path style="opacity:1" fill="#d2aa82" d="M 197.5,203.5 C 199.722,203.178 201.556,203.845 203,205.5C 203.667,209.5 203.667,213.5 203,217.5C 200.667,220.167 198.333,220.167 196,217.5C 194.966,212.543 195.466,207.876 197.5,203.5 Z"/></g>
<g><path style="opacity:1" fill="#1c567a" d="M 181.5,203.5 C 187.488,203.664 188.821,206.164 185.5,211C 179.403,211.147 178.07,208.647 181.5,203.5 Z"/></g>
<g><path style="opacity:1" fill="#1c567a" d="M 213.5,203.5 C 219.488,203.664 220.821,206.164 217.5,211C 211.403,211.147 210.07,208.647 213.5,203.5 Z"/></g>
<g><path style="opacity:1" fill="#c81151" d="M 183.5,223.5 C 194.167,223.5 204.833,223.5 215.5,223.5C 212.615,237.944 204.282,242.444 190.5,237C 185.913,233.66 183.58,229.16 183.5,223.5 Z"/></g>
<g><path style="opacity:1" fill="#d2aa82" d="M 183.5,251.5 C 194.119,256.73 204.786,256.73 215.5,251.5C 215.5,252.833 215.5,254.167 215.5,255.5C 215.768,257.099 215.434,258.432 214.5,259.5C 204.469,264.706 194.469,264.706 184.5,259.5C 183.766,258.292 183.433,256.959 183.5,255.5C 183.5,254.167 183.5,252.833 183.5,251.5 Z"/></g>
<g><path style="opacity:1" fill="#04a0c8" d="M 183.5,255.5 C 183.433,256.959 183.766,258.292 184.5,259.5C 186.441,266.9 191.274,270.9 199,271.5C 207.149,271.192 212.316,267.192 214.5,259.5C 215.434,258.432 215.768,257.099 215.5,255.5C 224.226,255.161 232.893,255.661 241.5,257C 259.562,264.952 266.729,278.786 263,298.5C 262.167,300.667 260.667,302.167 258.5,303C 219.167,303.667 179.833,303.667 140.5,303C 138.333,302.167 136.833,300.667 136,298.5C 132.215,277.217 140.382,263.05 160.5,256C 168.159,255.5 175.826,255.334 183.5,255.5 Z"/></g>
<g><path style="opacity:1" fill="#ecc6a0" d="M 184.5,259.5 C 194.469,264.706 204.469,264.706 214.5,259.5C 212.316,267.192 207.149,271.192 199,271.5C 191.274,270.9 186.441,266.9 184.5,259.5 Z"/></g>
<g><path style="opacity:0.993" fill="#f9b401" d="M 313.5,431.5 C 302.242,422.912 293.576,412.245 287.5,399.5C 271.601,359.769 279.601,325.769 311.5,297.5C 318.912,291.795 326.912,287.129 335.5,283.5C 374.325,272.499 406.492,282.499 432,313.5C 448.812,339.106 452.145,366.439 442,395.5C 423.579,433.801 393.079,450.968 350.5,447C 336.687,445.086 324.354,439.919 313.5,431.5 Z"/></g>
<g><path style="opacity:1" fill="#f0edea" d="M 413.5,337.5 C 412.301,340.563 410.801,343.563 409,346.5C 403.667,351.833 398.333,357.167 393,362.5C 393.077,364.772 394.243,366.438 396.5,367.5C 401.496,372.664 406.329,377.997 411,383.5C 413.053,387.586 413.887,391.92 413.5,396.5C 409.411,410.7 400.078,415.866 385.5,412C 383.833,411 382.167,410 380.5,409C 374.985,403.318 369.319,397.818 363.5,392.5C 357.681,397.818 352.015,403.318 346.5,409C 331.651,417.216 320.651,413.716 313.5,398.5C 313.023,393.258 313.856,388.258 316,383.5C 320.671,377.997 325.504,372.664 330.5,367.5C 332.757,366.438 333.923,364.772 334,362.5C 325.776,355.461 318.942,347.461 313.5,338.5C 312.366,324.066 318.866,315.733 333,313.5C 337.923,313.808 342.423,315.308 346.5,318C 352.015,323.682 357.681,329.182 363.5,334.5C 370.016,328.149 376.683,321.983 383.5,316C 393.029,311.762 401.529,313.262 409,320.5C 412.836,325.515 414.336,331.182 413.5,337.5 Z"/></g>
<g><path style="opacity:1" fill="#0c5078" d="M 144.5,318.5 C 180.835,318.333 217.168,318.5 253.5,319C 259.448,321.433 260.948,325.6 258,331.5C 256.829,332.893 255.329,333.727 253.5,334C 217.167,334.667 180.833,334.667 144.5,334C 139.465,330.987 138.298,326.82 141,321.5C 142.145,320.364 143.312,319.364 144.5,318.5 Z"/></g>
<g><path style="opacity:1" fill="#c91853" d="M 329.5,321.5 C 334.324,320.971 338.657,322.138 342.5,325C 349.348,332.015 356.348,338.848 363.5,345.5C 370.652,338.848 377.652,332.015 384.5,325C 391.749,319.845 398.249,320.678 404,327.5C 405.913,331.471 405.913,335.471 404,339.5C 396.683,347.651 389.183,355.651 381.5,363.5C 388.152,370.652 394.985,377.652 402,384.5C 408.321,395.544 405.321,402.544 393,405.5C 391.033,405.458 389.199,404.958 387.5,404C 379.349,396.683 371.349,389.183 363.5,381.5C 355.651,389.183 347.651,396.683 339.5,404C 329.212,407.382 323.212,403.716 321.5,393C 321.542,391.033 322.042,389.199 323,387.5C 330.317,379.349 337.817,371.349 345.5,363.5C 337.817,355.651 330.317,347.651 323,339.5C 319.82,331.532 321.987,325.532 329.5,321.5 Z"/></g>
<g><path style="opacity:1" fill="#dd9804" d="M 313.5,338.5 C 318.942,347.461 325.776,355.461 334,362.5C 333.923,364.772 332.757,366.438 330.5,367.5C 325.504,362.336 320.671,357.003 316,351.5C 313.947,347.414 313.113,343.08 313.5,338.5 Z"/></g>
<g><path style="opacity:1" fill="#dd9805" d="M 413.5,337.5 C 413.937,342.412 413.104,347.078 411,351.5C 406.329,357.003 401.496,362.336 396.5,367.5C 394.243,366.438 393.077,364.772 393,362.5C 398.333,357.167 403.667,351.833 409,346.5C 410.801,343.563 412.301,340.563 413.5,337.5 Z"/></g>
<g><path style="opacity:1" fill="#0c5078" d="M 144.5,350.5 C 180.835,350.333 217.168,350.5 253.5,351C 259.448,353.433 260.948,357.6 258,363.5C 256.829,364.893 255.329,365.727 253.5,366C 217.167,366.667 180.833,366.667 144.5,366C 139.465,362.987 138.298,358.82 141,353.5C 142.145,352.364 143.312,351.364 144.5,350.5 Z"/></g>
<g><path style="opacity:1" fill="#dd9704" d="M 413.5,396.5 C 413.717,415.786 404.384,423.62 385.5,420C 383.833,419 382.167,418 380.5,417C 374.985,411.318 369.319,405.818 363.5,400.5C 356.984,406.851 350.317,413.017 343.5,419C 329.468,424.549 319.635,420.383 314,406.5C 313.503,403.854 313.336,401.187 313.5,398.5C 320.651,413.716 331.651,417.216 346.5,409C 352.015,403.318 357.681,397.818 363.5,392.5C 369.319,397.818 374.985,403.318 380.5,409C 382.167,410 383.833,411 385.5,412C 400.078,415.866 409.411,410.7 413.5,396.5 Z"/></g>
<g><path style="opacity:1" fill="#a00028" d="M 88.5,395.5 C 89.343,397.173 90.6763,398.34 92.5,399C 157.499,399.5 222.499,399.667 287.5,399.5C 293.576,412.245 302.242,422.912 313.5,431.5C 310.5,431.5 307.5,431.5 304.5,431.5C 297.986,424.315 292.319,416.482 287.5,408C 222.5,407.667 157.5,407.333 92.5,407C 88.0526,404.156 86.7193,400.323 88.5,395.5 Z"/></g>
</svg>
