<?xml version="1.0" encoding="UTF-8"?>
<!DOCTYPE svg PUBLIC "-//W3C//DTD SVG 1.1//EN" "http://www.w3.org/Graphics/SVG/1.1/DTD/svg11.dtd">
<svg xmlns="http://www.w3.org/2000/svg" version="1.1" width="512px" height="512px" style="shape-rendering:geometricPrecision; text-rendering:geometricPrecision; image-rendering:optimizeQuality; fill-rule:evenodd; clip-rule:evenodd" xmlns:xlink="http://www.w3.org/1999/xlink">
<g><path style="opacity:1" fill="#29f498" d="M -0.5,-0.5 C 56.1667,-0.5 112.833,-0.5 169.5,-0.5C 169.5,2.5 169.5,5.5 169.5,8.5C 112.833,8.5 56.1667,8.5 -0.5,8.5C -0.5,5.5 -0.5,2.5 -0.5,-0.5 Z"/></g>
<g><path style="opacity:1" fill="#29f498" d="M 239.5,-0.5 C 252.833,-0.5 266.167,-0.5 279.5,-0.5C 279.5,2.5 279.5,5.5 279.5,8.5C 266.167,8.5 252.833,8.5 239.5,8.5C 239.5,5.5 239.5,2.5 239.5,-0.5 Z"/></g>
<g><path style="opacity:1" fill="#29f498" d="M 341.5,-0.5 C 398.167,-0.5 454.833,-0.5 511.5,-0.5C 511.5,2.5 511.5,5.5 511.5,8.5C 454.833,8.5 398.167,8.5 341.5,8.5C 341.5,5.5 341.5,2.5 341.5,-0.5 Z"/></g>
<g><path style="opacity:1" fill="#28f29b" d="M -0.5,8.5 C 56.1667,8.5 112.833,8.5 169.5,8.5C 169.5,13.1667 169.5,17.8333 169.5,22.5C 112.833,22.5 56.1667,22.5 -0.5,22.5C -0.5,17.8333 -0.5,13.1667 -0.5,8.5 Z"/></g>
<g><path style="opacity:1" fill="#28f29b" d="M 239.5,8.5 C 252.833,8.5 266.167,8.5 279.5,8.5C 279.5,13.1667 279.5,17.8333 279.5,22.5C 266.167,22.5 252.833,22.5 239.5,22.5C 239.5,17.8333 239.5,13.1667 239.5,8.5 Z"/></g>
<g><path style="opacity:1" fill="#28f29b" d="M 341.5,8.5 C 398.167,8.5 454.833,8.5 511.5,8.5C 511.5,13.1667 511.5,17.8333 511.5,22.5C 454.833,22.5 398.167,22.5 341.5,22.5C 341.5,17.8333 341.5,13.1667 341.5,8.5 Z"/></g>
<g><path style="opacity:1" fill="#27ef9e" d="M -0.5,22.5 C 56.1667,22.5 112.833,22.5 169.5,22.5C 169.5,29.5 169.5,36.5 169.5,43.5C 156.167,43.5 142.833,43.5 129.5,43.5C 129.5,42.1667 129.5,40.8333 129.5,39.5C 99.5,39.5 69.5,39.5 39.5,39.5C 39.5,40.8333 39.5,42.1667 39.5,43.5C 26.1667,43.5 12.8333,43.5 -0.5,43.5C -0.5,36.5 -0.5,29.5 -0.5,22.5 Z"/></g>
<g><path style="opacity:1" fill="#27ef9e" d="M 239.5,22.5 C 252.833,22.5 266.167,22.5 279.5,22.5C 279.5,28.1667 279.5,33.8333 279.5,39.5C 266.167,39.5 252.833,39.5 239.5,39.5C 239.5,33.8333 239.5,28.1667 239.5,22.5 Z"/></g>
<g><path style="opacity:1" fill="#27ef9e" d="M 341.5,22.5 C 398.167,22.5 454.833,22.5 511.5,22.5C 511.5,29.5 511.5,36.5 511.5,43.5C 498.167,43.5 484.833,43.5 471.5,43.5C 471.5,42.1667 471.5,40.8333 471.5,39.5C 441.5,39.5 411.5,39.5 381.5,39.5C 381.5,40.8333 381.5,42.1667 381.5,43.5C 368.167,43.5 354.833,43.5 341.5,43.5C 341.5,36.5 341.5,29.5 341.5,22.5 Z"/></g>
<g><path style="opacity:1" fill="#26eda0" d="M 239.5,39.5 C 239.5,40.8333 239.5,42.1667 239.5,43.5C 226.167,43.5 212.833,43.5 199.5,43.5C 199.5,42.1667 199.5,40.8333 199.5,39.5C 212.833,39.5 226.167,39.5 239.5,39.5 Z"/></g>
<g><path style="opacity:1" fill="#26eca1" d="M -0.5,43.5 C 12.8333,43.5 26.1667,43.5 39.5,43.5C 39.5,46.5 39.5,49.5 39.5,52.5C 26.1667,52.5 12.8333,52.5 -0.5,52.5C -0.5,49.5 -0.5,46.5 -0.5,43.5 Z"/></g>
<g><path style="opacity:1" fill="#26eca1" d="M 129.5,43.5 C 142.833,43.5 156.167,43.5 169.5,43.5C 169.5,46.5 169.5,49.5 169.5,52.5C 156.167,52.5 142.833,52.5 129.5,52.5C 129.5,49.5 129.5,46.5 129.5,43.5 Z"/></g>
<g><path style="opacity:1" fill="#26eca1" d="M 199.5,43.5 C 212.833,43.5 226.167,43.5 239.5,43.5C 239.5,46.5 239.5,49.5 239.5,52.5C 226.167,52.5 212.833,52.5 199.5,52.5C 199.5,49.5 199.5,46.5 199.5,43.5 Z"/></g>
<g><path style="opacity:1" fill="#26eca1" d="M 341.5,43.5 C 354.833,43.5 368.167,43.5 381.5,43.5C 381.5,46.5 381.5,49.5 381.5,52.5C 368.167,52.5 354.833,52.5 341.5,52.5C 341.5,49.5 341.5,46.5 341.5,43.5 Z"/></g>
<g><path style="opacity:1" fill="#26eca1" d="M 471.5,43.5 C 484.833,43.5 498.167,43.5 511.5,43.5C 511.5,46.5 511.5,49.5 511.5,52.5C 498.167,52.5 484.833,52.5 471.5,52.5C 471.5,49.5 471.5,46.5 471.5,43.5 Z"/></g>
<g><path style="opacity:1" fill="#26eca2" d="M -0.5,52.5 C 12.8333,52.5 26.1667,52.5 39.5,52.5C 39.5,53.1667 39.5,53.8333 39.5,54.5C 26.1667,54.5 12.8333,54.5 -0.5,54.5C -0.5,53.8333 -0.5,53.1667 -0.5,52.5 Z"/></g>
<g><path style="opacity:1" fill="#26eca2" d="M 129.5,52.5 C 142.833,52.5 156.167,52.5 169.5,52.5C 169.5,53.1667 169.5,53.8333 169.5,54.5C 156.167,54.5 142.833,54.5 129.5,54.5C 129.5,53.8333 129.5,53.1667 129.5,52.5 Z"/></g>
<g><path style="opacity:1" fill="#26eca2" d="M 199.5,52.5 C 212.833,52.5 226.167,52.5 239.5,52.5C 239.5,53.1667 239.5,53.8333 239.5,54.5C 226.167,54.5 212.833,54.5 199.5,54.5C 199.5,53.8333 199.5,53.1667 199.5,52.5 Z"/></g>
<g><path style="opacity:1" fill="#26eca2" d="M 341.5,52.5 C 354.833,52.5 368.167,52.5 381.5,52.5C 381.5,53.1667 381.5,53.8333 381.5,54.5C 368.167,54.5 354.833,54.5 341.5,54.5C 341.5,53.8333 341.5,53.1667 341.5,52.5 Z"/></g>
<g><path style="opacity:1" fill="#26eca2" d="M 471.5,52.5 C 484.833,52.5 498.167,52.5 511.5,52.5C 511.5,53.1667 511.5,53.8333 511.5,54.5C 498.167,54.5 484.833,54.5 471.5,54.5C 471.5,53.8333 471.5,53.1667 471.5,52.5 Z"/></g>
<g><path style="opacity:1" fill="#24e9a5" d="M -0.5,54.5 C 12.8333,54.5 26.1667,54.5 39.5,54.5C 39.5,62.5 39.5,70.5 39.5,78.5C 26.1667,78.5 12.8333,78.5 -0.5,78.5C -0.5,70.5 -0.5,62.5 -0.5,54.5 Z"/></g>
<g><path style="opacity:1" fill="#24e9a5" d="M 129.5,54.5 C 142.833,54.5 156.167,54.5 169.5,54.5C 169.5,62.5 169.5,70.5 169.5,78.5C 156.167,78.5 142.833,78.5 129.5,78.5C 129.5,70.5 129.5,62.5 129.5,54.5 Z"/></g>
<g><path style="opacity:1" fill="#24e9a5" d="M 199.5,54.5 C 212.833,54.5 226.167,54.5 239.5,54.5C 239.5,62.5 239.5,70.5 239.5,78.5C 226.167,78.5 212.833,78.5 199.5,78.5C 199.5,70.5 199.5,62.5 199.5,54.5 Z"/></g>
<g><path style="opacity:1" fill="#24e9a5" d="M 341.5,54.5 C 354.833,54.5 368.167,54.5 381.5,54.5C 381.5,62.5 381.5,70.5 381.5,78.5C 368.167,78.5 354.833,78.5 341.5,78.5C 341.5,70.5 341.5,62.5 341.5,54.5 Z"/></g>
<g><path style="opacity:1" fill="#24e9a5" d="M 471.5,54.5 C 484.833,54.5 498.167,54.5 511.5,54.5C 511.5,62.5 511.5,70.5 511.5,78.5C 498.167,78.5 484.833,78.5 471.5,78.5C 471.5,70.5 471.5,62.5 471.5,54.5 Z"/></g>
<g><path style="opacity:1" fill="#24e8a6" d="M 104.5,78.5 C 91.1667,78.5 77.8333,78.5 64.5,78.5C 64.5,73.8333 64.5,69.1667 64.5,64.5C 77.8333,64.5 91.1667,64.5 104.5,64.5C 104.5,69.1667 104.5,73.8333 104.5,78.5 Z"/></g>
<g><path style="opacity:1" fill="#24e8a6" d="M 446.5,78.5 C 433.167,78.5 419.833,78.5 406.5,78.5C 406.5,73.8333 406.5,69.1667 406.5,64.5C 419.833,64.5 433.167,64.5 446.5,64.5C 446.5,69.1667 446.5,73.8333 446.5,78.5 Z"/></g>
<g><path style="opacity:1" fill="#24e8a7" d="M 319.5,78.5 C 306.167,78.5 292.833,78.5 279.5,78.5C 285.798,77.1699 292.465,76.5032 299.5,76.5C 306.535,76.5032 313.202,77.1699 319.5,78.5 Z"/></g>
<g><path style="opacity:1" fill="#23e7a7" d="M -0.5,78.5 C 12.8333,78.5 26.1667,78.5 39.5,78.5C 39.5,80.1667 39.5,81.8333 39.5,83.5C 26.1667,83.5 12.8333,83.5 -0.5,83.5C -0.5,81.8333 -0.5,80.1667 -0.5,78.5 Z"/></g>
<g><path style="opacity:1" fill="#23e7a7" d="M 64.5,78.5 C 77.8333,78.5 91.1667,78.5 104.5,78.5C 104.5,80.1667 104.5,81.8333 104.5,83.5C 91.1667,83.5 77.8333,83.5 64.5,83.5C 64.5,81.8333 64.5,80.1667 64.5,78.5 Z"/></g>
<g><path style="opacity:1" fill="#23e7a7" d="M 129.5,78.5 C 142.833,78.5 156.167,78.5 169.5,78.5C 169.5,80.1667 169.5,81.8333 169.5,83.5C 156.167,83.5 142.833,83.5 129.5,83.5C 129.5,81.8333 129.5,80.1667 129.5,78.5 Z"/></g>
<g><path style="opacity:1" fill="#23e7a7" d="M 199.5,78.5 C 212.833,78.5 226.167,78.5 239.5,78.5C 239.5,80.1667 239.5,81.8333 239.5,83.5C 226.167,83.5 212.833,83.5 199.5,83.5C 199.5,81.8333 199.5,80.1667 199.5,78.5 Z"/></g>
<g><path style="opacity:1" fill="#23e7a7" d="M 279.5,78.5 C 292.833,78.5 306.167,78.5 319.5,78.5C 319.5,80.1667 319.5,81.8333 319.5,83.5C 306.167,83.5 292.833,83.5 279.5,83.5C 279.5,81.8333 279.5,80.1667 279.5,78.5 Z"/></g>
<g><path style="opacity:1" fill="#23e7a7" d="M 341.5,78.5 C 354.833,78.5 368.167,78.5 381.5,78.5C 381.5,80.1667 381.5,81.8333 381.5,83.5C 368.167,83.5 354.833,83.5 341.5,83.5C 341.5,81.8333 341.5,80.1667 341.5,78.5 Z"/></g>
<g><path style="opacity:1" fill="#23e7a7" d="M 406.5,78.5 C 419.833,78.5 433.167,78.5 446.5,78.5C 446.5,80.1667 446.5,81.8333 446.5,83.5C 433.167,83.5 419.833,83.5 406.5,83.5C 406.5,81.8333 406.5,80.1667 406.5,78.5 Z"/></g>
<g><path style="opacity:1" fill="#23e7a7" d="M 471.5,78.5 C 484.833,78.5 498.167,78.5 511.5,78.5C 511.5,80.1667 511.5,81.8333 511.5,83.5C 498.167,83.5 484.833,83.5 471.5,83.5C 471.5,81.8333 471.5,80.1667 471.5,78.5 Z"/></g>
<g><path style="opacity:1" fill="#21e4ab" d="M -0.5,83.5 C 12.8333,83.5 26.1667,83.5 39.5,83.5C 39.5,93.5 39.5,103.5 39.5,113.5C 26.1667,113.5 12.8333,113.5 -0.5,113.5C -0.5,103.5 -0.5,93.5 -0.5,83.5 Z"/></g>
<g><path style="opacity:1" fill="#22e4aa" d="M 64.5,83.5 C 77.8333,83.5 91.1667,83.5 104.5,83.5C 104.5,90.5 104.5,97.5 104.5,104.5C 91.1667,104.5 77.8333,104.5 64.5,104.5C 64.5,97.5 64.5,90.5 64.5,83.5 Z"/></g>
<g><path style="opacity:1" fill="#21e4ab" d="M 129.5,83.5 C 142.833,83.5 156.167,83.5 169.5,83.5C 169.5,93.5 169.5,103.5 169.5,113.5C 156.167,113.5 142.833,113.5 129.5,113.5C 129.5,103.5 129.5,93.5 129.5,83.5 Z"/></g>
<g><path style="opacity:1" fill="#21e4ab" d="M 199.5,83.5 C 212.833,83.5 226.167,83.5 239.5,83.5C 239.5,93.5 239.5,103.5 239.5,113.5C 226.167,113.5 212.833,113.5 199.5,113.5C 199.5,103.5 199.5,93.5 199.5,83.5 Z"/></g>
<g><path style="opacity:1" fill="#21e4ab" d="M 279.5,83.5 C 292.833,83.5 306.167,83.5 319.5,83.5C 319.5,93.5 319.5,103.5 319.5,113.5C 306.167,113.5 292.833,113.5 279.5,113.5C 279.5,103.5 279.5,93.5 279.5,83.5 Z"/></g>
<g><path style="opacity:1" fill="#21e4ab" d="M 341.5,83.5 C 354.833,83.5 368.167,83.5 381.5,83.5C 381.5,93.5 381.5,103.5 381.5,113.5C 368.167,113.5 354.833,113.5 341.5,113.5C 341.5,103.5 341.5,93.5 341.5,83.5 Z"/></g>
<g><path style="opacity:1" fill="#22e4aa" d="M 406.5,83.5 C 419.833,83.5 433.167,83.5 446.5,83.5C 446.5,90.5 446.5,97.5 446.5,104.5C 433.167,104.5 419.833,104.5 406.5,104.5C 406.5,97.5 406.5,90.5 406.5,83.5 Z"/></g>
<g><path style="opacity:1" fill="#21e4ab" d="M 471.5,83.5 C 484.833,83.5 498.167,83.5 511.5,83.5C 511.5,93.5 511.5,103.5 511.5,113.5C 498.167,113.5 484.833,113.5 471.5,113.5C 471.5,103.5 471.5,93.5 471.5,83.5 Z"/></g>
<g><path style="opacity:1" fill="#20e1af" d="M -0.5,113.5 C 12.8333,113.5 26.1667,113.5 39.5,113.5C 39.5,115.833 39.5,118.167 39.5,120.5C 26.1667,120.5 12.8333,120.5 -0.5,120.5C -0.5,118.167 -0.5,115.833 -0.5,113.5 Z"/></g>
<g><path style="opacity:1" fill="#20e1af" d="M 129.5,113.5 C 142.833,113.5 156.167,113.5 169.5,113.5C 169.5,115.833 169.5,118.167 169.5,120.5C 156.167,120.5 142.833,120.5 129.5,120.5C 129.5,118.167 129.5,115.833 129.5,113.5 Z"/></g>
<g><path style="opacity:1" fill="#20e1af" d="M 199.5,113.5 C 212.833,113.5 226.167,113.5 239.5,113.5C 239.5,114.5 239.5,115.5 239.5,116.5C 226.167,116.5 212.833,116.5 199.5,116.5C 199.5,115.5 199.5,114.5 199.5,113.5 Z"/></g>
<g><path style="opacity:1" fill="#20e1af" d="M 279.5,113.5 C 292.833,113.5 306.167,113.5 319.5,113.5C 319.5,114.5 319.5,115.5 319.5,116.5C 306.167,116.5 292.833,116.5 279.5,116.5C 279.5,115.5 279.5,114.5 279.5,113.5 Z"/></g>
<g><path style="opacity:1" fill="#20e1af" d="M 341.5,113.5 C 354.833,113.5 368.167,113.5 381.5,113.5C 381.5,115.833 381.5,118.167 381.5,120.5C 368.167,120.5 354.833,120.5 341.5,120.5C 341.5,118.167 341.5,115.833 341.5,113.5 Z"/></g>
<g><path style="opacity:1" fill="#20e1af" d="M 471.5,113.5 C 484.833,113.5 498.167,113.5 511.5,113.5C 511.5,115.833 511.5,118.167 511.5,120.5C 498.167,120.5 484.833,120.5 471.5,120.5C 471.5,118.167 471.5,115.833 471.5,113.5 Z"/></g>
<g><path style="opacity:1" fill="#20e1af" d="M 239.5,116.5 C 252.833,116.5 266.167,116.5 279.5,116.5C 279.5,117.833 279.5,119.167 279.5,120.5C 266.167,120.5 252.833,120.5 239.5,120.5C 239.5,119.167 239.5,117.833 239.5,116.5 Z"/></g>
<g><path style="opacity:1" fill="#20dfb0" d="M -0.5,120.5 C 12.8333,120.5 26.1667,120.5 39.5,120.5C 39.5,122.833 39.5,125.167 39.5,127.5C 26.1667,127.5 12.8333,127.5 -0.5,127.5C -0.5,125.167 -0.5,122.833 -0.5,120.5 Z"/></g>
<g><path style="opacity:1" fill="#20dfb0" d="M 129.5,120.5 C 142.833,120.5 156.167,120.5 169.5,120.5C 169.5,122.833 169.5,125.167 169.5,127.5C 156.167,127.5 142.833,127.5 129.5,127.5C 129.5,125.167 129.5,122.833 129.5,120.5 Z"/></g>
<g><path style="opacity:1" fill="#20dfb0" d="M 239.5,120.5 C 252.833,120.5 266.167,120.5 279.5,120.5C 279.5,122.833 279.5,125.167 279.5,127.5C 266.167,127.5 252.833,127.5 239.5,127.5C 239.5,125.167 239.5,122.833 239.5,120.5 Z"/></g>
<g><path style="opacity:1" fill="#20dfb0" d="M 341.5,120.5 C 354.833,120.5 368.167,120.5 381.5,120.5C 381.5,122.833 381.5,125.167 381.5,127.5C 368.167,127.5 354.833,127.5 341.5,127.5C 341.5,125.167 341.5,122.833 341.5,120.5 Z"/></g>
<g><path style="opacity:1" fill="#20dfb0" d="M 471.5,120.5 C 484.833,120.5 498.167,120.5 511.5,120.5C 511.5,122.833 511.5,125.167 511.5,127.5C 498.167,127.5 484.833,127.5 471.5,127.5C 471.5,125.167 471.5,122.833 471.5,120.5 Z"/></g>
<g><path style="opacity:1" fill="#1eddb3" d="M -0.5,127.5 C 12.8333,127.5 26.1667,127.5 39.5,127.5C 54.1515,128.833 69.1515,129.499 84.5,129.5C 99.8485,129.499 114.849,128.833 129.5,127.5C 142.833,127.5 156.167,127.5 169.5,127.5C 169.5,134.5 169.5,141.5 169.5,148.5C 112.833,148.5 56.1667,148.5 -0.5,148.5C -0.5,141.5 -0.5,134.5 -0.5,127.5 Z"/></g>
<g><path style="opacity:1" fill="#1eddb3" d="M 239.5,127.5 C 252.833,127.5 266.167,127.5 279.5,127.5C 279.5,134.5 279.5,141.5 279.5,148.5C 266.167,148.5 252.833,148.5 239.5,148.5C 239.5,141.5 239.5,134.5 239.5,127.5 Z"/></g>
<g><path style="opacity:1" fill="#1eddb3" d="M 341.5,127.5 C 354.833,127.5 368.167,127.5 381.5,127.5C 396.151,128.833 411.151,129.499 426.5,129.5C 441.849,129.499 456.849,128.833 471.5,127.5C 484.833,127.5 498.167,127.5 511.5,127.5C 511.5,134.5 511.5,141.5 511.5,148.5C 454.833,148.5 398.167,148.5 341.5,148.5C 341.5,141.5 341.5,134.5 341.5,127.5 Z"/></g>
<g><path style="opacity:1" fill="#1ddbb6" d="M -0.5,148.5 C 56.1667,148.5 112.833,148.5 169.5,148.5C 169.5,150.833 169.5,153.167 169.5,155.5C 112.833,155.5 56.1667,155.5 -0.5,155.5C -0.5,153.167 -0.5,150.833 -0.5,148.5 Z"/></g>
<g><path style="opacity:1" fill="#1ddbb6" d="M 239.5,148.5 C 252.833,148.5 266.167,148.5 279.5,148.5C 279.5,150.833 279.5,153.167 279.5,155.5C 266.167,155.5 252.833,155.5 239.5,155.5C 239.5,153.167 239.5,150.833 239.5,148.5 Z"/></g>
<g><path style="opacity:1" fill="#1ddbb6" d="M 341.5,148.5 C 398.167,148.5 454.833,148.5 511.5,148.5C 511.5,150.833 511.5,153.167 511.5,155.5C 454.833,155.5 398.167,155.5 341.5,155.5C 341.5,153.167 341.5,150.833 341.5,148.5 Z"/></g>
<g><path style="opacity:1" fill="#1cd9b8" d="M -0.5,155.5 C 56.1667,155.5 112.833,155.5 169.5,155.5C 169.5,160.167 169.5,164.833 169.5,169.5C 112.833,169.5 56.1667,169.5 -0.5,169.5C -0.5,164.833 -0.5,160.167 -0.5,155.5 Z"/></g>
<g><path style="opacity:1" fill="#1cd8b9" d="M 239.5,155.5 C 252.833,155.5 266.167,155.5 279.5,155.5C 279.5,163.5 279.5,171.5 279.5,179.5C 252.833,179.5 226.167,179.5 199.5,179.5C 199.5,171.833 199.5,164.167 199.5,156.5C 213.01,156.829 226.344,156.496 239.5,155.5 Z"/></g>
<g><path style="opacity:1" fill="#1cd9b8" d="M 341.5,155.5 C 398.167,155.5 454.833,155.5 511.5,155.5C 511.5,160.167 511.5,164.833 511.5,169.5C 454.833,169.5 398.167,169.5 341.5,169.5C 341.5,164.833 341.5,160.167 341.5,155.5 Z"/></g>
<g><path style="opacity:1" fill="#1ad5bc" d="M 199.5,179.5 C 226.167,179.5 252.833,179.5 279.5,179.5C 279.5,183.167 279.5,186.833 279.5,190.5C 252.833,190.5 226.167,190.5 199.5,190.5C 199.5,186.833 199.5,183.167 199.5,179.5 Z"/></g>
<g><path style="opacity:1" fill="#1ad4be" d="M 199.5,190.5 C 226.167,190.5 252.833,190.5 279.5,190.5C 279.5,192.5 279.5,194.5 279.5,196.5C 252.833,196.5 226.167,196.5 199.5,196.5C 199.5,194.5 199.5,192.5 199.5,190.5 Z"/></g>
<g><path style="opacity:1" fill="#19d2c0" d="M 79.5,209.5 C 66.1667,209.5 52.8333,209.5 39.5,209.5C 39.5,205.167 39.5,200.833 39.5,196.5C 52.8333,196.5 66.1667,196.5 79.5,196.5C 79.5,200.833 79.5,205.167 79.5,209.5 Z"/></g>
<g><path style="opacity:1" fill="#19d2c0" d="M 199.5,196.5 C 199.5,200.833 199.5,205.167 199.5,209.5C 172.833,209.5 146.167,209.5 119.5,209.5C 119.5,205.167 119.5,200.833 119.5,196.5C 146.167,196.5 172.833,196.5 199.5,196.5 Z"/></g>
<g><path style="opacity:1" fill="#19d2c0" d="M 279.5,196.5 C 292.833,196.5 306.167,196.5 319.5,196.5C 319.5,200.833 319.5,205.167 319.5,209.5C 306.167,209.5 292.833,209.5 279.5,209.5C 279.5,205.167 279.5,200.833 279.5,196.5 Z"/></g>
<g><path style="opacity:1" fill="#19d2c0" d="M 471.5,209.5 C 447.167,209.5 422.833,209.5 398.5,209.5C 398.5,205.167 398.5,200.833 398.5,196.5C 422.833,196.5 447.167,196.5 471.5,196.5C 471.5,200.833 471.5,205.167 471.5,209.5 Z"/></g>
<g><path style="opacity:1" fill="#19d1c1" d="M 39.5,209.5 C 52.8333,209.5 66.1667,209.5 79.5,209.5C 79.5,210.5 79.5,211.5 79.5,212.5C 66.1667,212.5 52.8333,212.5 39.5,212.5C 39.5,211.5 39.5,210.5 39.5,209.5 Z"/></g>
<g><path style="opacity:1" fill="#19d1c1" d="M 119.5,209.5 C 146.167,209.5 172.833,209.5 199.5,209.5C 199.5,210.5 199.5,211.5 199.5,212.5C 172.833,212.5 146.167,212.5 119.5,212.5C 119.5,211.5 119.5,210.5 119.5,209.5 Z"/></g>
<g><path style="opacity:1" fill="#19d1c1" d="M 279.5,209.5 C 292.833,209.5 306.167,209.5 319.5,209.5C 319.5,210.5 319.5,211.5 319.5,212.5C 306.167,212.5 292.833,212.5 279.5,212.5C 279.5,211.5 279.5,210.5 279.5,209.5 Z"/></g>
<g><path style="opacity:1" fill="#19d1c1" d="M 398.5,209.5 C 422.833,209.5 447.167,209.5 471.5,209.5C 471.5,210.5 471.5,211.5 471.5,212.5C 447.167,212.5 422.833,212.5 398.5,212.5C 398.5,211.5 398.5,210.5 398.5,209.5 Z"/></g>
<g><path style="opacity:1" fill="#17cfc3" d="M 39.5,212.5 C 52.8333,212.5 66.1667,212.5 79.5,212.5C 79.5,216.833 79.5,221.167 79.5,225.5C 66.1667,225.5 52.8333,225.5 39.5,225.5C 39.5,221.167 39.5,216.833 39.5,212.5 Z"/></g>
<g><path style="opacity:1" fill="#17cfc3" d="M 119.5,212.5 C 146.167,212.5 172.833,212.5 199.5,212.5C 199.5,216.833 199.5,221.167 199.5,225.5C 172.833,225.5 146.167,225.5 119.5,225.5C 119.5,221.167 119.5,216.833 119.5,212.5 Z"/></g>
<g><path style="opacity:1" fill="#17cfc3" d="M 279.5,212.5 C 292.833,212.5 306.167,212.5 319.5,212.5C 319.5,216.833 319.5,221.167 319.5,225.5C 306.167,225.5 292.833,225.5 279.5,225.5C 279.5,221.167 279.5,216.833 279.5,212.5 Z"/></g>
<g><path style="opacity:1" fill="#17cfc3" d="M 398.5,212.5 C 422.833,212.5 447.167,212.5 471.5,212.5C 471.5,216.833 471.5,221.167 471.5,225.5C 447.167,225.5 422.833,225.5 398.5,225.5C 398.5,221.167 398.5,216.833 398.5,212.5 Z"/></g>
<g><path style="opacity:1" fill="#17cdc5" d="M 39.5,225.5 C 52.8333,225.5 66.1667,225.5 79.5,225.5C 79.5,229.167 79.5,232.833 79.5,236.5C 66.1667,236.5 52.8333,236.5 39.5,236.5C 39.5,232.833 39.5,229.167 39.5,225.5 Z"/></g>
<g><path style="opacity:1" fill="#17cdc5" d="M 119.5,225.5 C 146.167,225.5 172.833,225.5 199.5,225.5C 199.5,229.167 199.5,232.833 199.5,236.5C 172.833,236.5 146.167,236.5 119.5,236.5C 119.5,232.833 119.5,229.167 119.5,225.5 Z"/></g>
<g><path style="opacity:1" fill="#16cdc6" d="M 279.5,225.5 C 292.833,225.5 306.167,225.5 319.5,225.5C 319.5,230.5 319.5,235.5 319.5,240.5C 306.167,240.5 292.833,240.5 279.5,240.5C 279.5,235.5 279.5,230.5 279.5,225.5 Z"/></g>
<g><path style="opacity:1" fill="#16cdc6" d="M 398.5,225.5 C 422.833,225.5 447.167,225.5 471.5,225.5C 471.5,228.833 471.5,232.167 471.5,235.5C 484.833,235.5 498.167,235.5 511.5,235.5C 511.5,237.167 511.5,238.833 511.5,240.5C 498.167,240.5 484.833,240.5 471.5,240.5C 471.5,239.167 471.5,237.833 471.5,236.5C 447.5,236.5 423.5,236.5 399.5,236.5C 399.5,237.833 399.5,239.167 399.5,240.5C 386.167,240.5 372.833,240.5 359.5,240.5C 359.5,239.167 359.5,237.833 359.5,236.5C 372.5,236.5 385.5,236.5 398.5,236.5C 398.5,232.833 398.5,229.167 398.5,225.5 Z"/></g>
<g><path style="opacity:1" fill="#16ccc7" d="M -0.5,236.5 C 12.8333,236.5 26.1667,236.5 39.5,236.5C 39.5,237.833 39.5,239.167 39.5,240.5C 26.1667,240.5 12.8333,240.5 -0.5,240.5C -0.5,239.167 -0.5,237.833 -0.5,236.5 Z"/></g>
<g><path style="opacity:1" fill="#16ccc7" d="M 79.5,236.5 C 92.8333,236.5 106.167,236.5 119.5,236.5C 119.5,237.833 119.5,239.167 119.5,240.5C 106.167,240.5 92.8333,240.5 79.5,240.5C 79.5,239.167 79.5,237.833 79.5,236.5 Z"/></g>
<g><path style="opacity:1" fill="#16ccc7" d="M 199.5,236.5 C 212.833,236.5 226.167,236.5 239.5,236.5C 239.5,237.833 239.5,239.167 239.5,240.5C 226.167,240.5 212.833,240.5 199.5,240.5C 199.5,239.167 199.5,237.833 199.5,236.5 Z"/></g>
<g><path style="opacity:1" fill="#15c9ca" d="M -0.5,240.5 C 12.8333,240.5 26.1667,240.5 39.5,240.5C 39.5,249.5 39.5,258.5 39.5,267.5C 26.1667,267.5 12.8333,267.5 -0.5,267.5C -0.5,258.5 -0.5,249.5 -0.5,240.5 Z"/></g>
<g><path style="opacity:1" fill="#15c9ca" d="M 79.5,240.5 C 92.8333,240.5 106.167,240.5 119.5,240.5C 119.5,249.5 119.5,258.5 119.5,267.5C 106.167,267.5 92.8333,267.5 79.5,267.5C 79.5,258.5 79.5,249.5 79.5,240.5 Z"/></g>
<g><path style="opacity:1" fill="#15c9ca" d="M 199.5,240.5 C 212.833,240.5 226.167,240.5 239.5,240.5C 239.5,249.5 239.5,258.5 239.5,267.5C 226.167,267.5 212.833,267.5 199.5,267.5C 199.5,258.5 199.5,249.5 199.5,240.5 Z"/></g>
<g><path style="opacity:1" fill="#15c9ca" d="M 279.5,240.5 C 292.833,240.5 306.167,240.5 319.5,240.5C 319.5,249.5 319.5,258.5 319.5,267.5C 306.167,267.5 292.833,267.5 279.5,267.5C 279.5,258.5 279.5,249.5 279.5,240.5 Z"/></g>
<g><path style="opacity:1" fill="#15c9ca" d="M 359.5,240.5 C 372.833,240.5 386.167,240.5 399.5,240.5C 399.5,249.5 399.5,258.5 399.5,267.5C 386.167,267.5 372.833,267.5 359.5,267.5C 359.5,258.5 359.5,249.5 359.5,240.5 Z"/></g>
<g><path style="opacity:1" fill="#15c9ca" d="M 471.5,240.5 C 484.833,240.5 498.167,240.5 511.5,240.5C 511.5,249.5 511.5,258.5 511.5,267.5C 498.167,267.5 484.833,267.5 471.5,267.5C 471.5,258.5 471.5,249.5 471.5,240.5 Z"/></g>
<g><path style="opacity:1" fill="#13c6cd" d="M -0.5,267.5 C 12.8333,267.5 26.1667,267.5 39.5,267.5C 39.5,270.5 39.5,273.5 39.5,276.5C 26.1667,276.5 12.8333,276.5 -0.5,276.5C -0.5,273.5 -0.5,270.5 -0.5,267.5 Z"/></g>
<g><path style="opacity:1" fill="#13c6cd" d="M 79.5,267.5 C 92.8333,267.5 106.167,267.5 119.5,267.5C 119.5,270.5 119.5,273.5 119.5,276.5C 119.167,276.5 118.833,276.5 118.5,276.5C 105.5,276.5 92.5,276.5 79.5,276.5C 79.5,273.5 79.5,270.5 79.5,267.5 Z"/></g>
<g><path style="opacity:1" fill="#13c6cd" d="M 199.5,267.5 C 212.833,267.5 226.167,267.5 239.5,267.5C 239.5,270.5 239.5,273.5 239.5,276.5C 226.167,276.5 212.833,276.5 199.5,276.5C 199.5,273.5 199.5,270.5 199.5,267.5 Z"/></g>
<g><path style="opacity:1" fill="#13c6cd" d="M 279.5,267.5 C 292.833,267.5 306.167,267.5 319.5,267.5C 319.5,270.5 319.5,273.5 319.5,276.5C 306.167,276.5 292.833,276.5 279.5,276.5C 279.5,273.5 279.5,270.5 279.5,267.5 Z"/></g>
<g><path style="opacity:1" fill="#13c6cd" d="M 359.5,267.5 C 372.833,267.5 386.167,267.5 399.5,267.5C 399.5,270.167 399.5,272.833 399.5,275.5C 423.5,275.5 447.5,275.5 471.5,275.5C 471.5,272.833 471.5,270.167 471.5,267.5C 484.833,267.5 498.167,267.5 511.5,267.5C 511.5,270.5 511.5,273.5 511.5,276.5C 474.167,276.5 436.833,276.5 399.5,276.5C 386.167,276.5 372.833,276.5 359.5,276.5C 359.5,273.5 359.5,270.5 359.5,267.5 Z"/></g>
<g><path style="opacity:1" fill="#13c5cf" d="M -0.5,276.5 C 12.8333,276.5 26.1667,276.5 39.5,276.5C 39.5,279.833 39.5,283.167 39.5,286.5C 26.1667,286.5 12.8333,286.5 -0.5,286.5C -0.5,283.167 -0.5,279.833 -0.5,276.5 Z"/></g>
<g><path style="opacity:1" fill="#13c5cf" d="M 118.5,276.5 C 118.833,276.5 119.167,276.5 119.5,276.5C 132.5,276.5 145.5,276.5 158.5,276.5C 158.5,279.833 158.5,283.167 158.5,286.5C 145.167,286.5 131.833,286.5 118.5,286.5C 118.5,283.167 118.5,279.833 118.5,276.5 Z"/></g>
<g><path style="opacity:1" fill="#13c5cf" d="M 199.5,276.5 C 212.833,276.5 226.167,276.5 239.5,276.5C 239.5,279.833 239.5,283.167 239.5,286.5C 226.167,286.5 212.833,286.5 199.5,286.5C 199.5,283.167 199.5,279.833 199.5,276.5 Z"/></g>
<g><path style="opacity:1" fill="#13c5cf" d="M 319.5,276.5 C 332.833,276.5 346.167,276.5 359.5,276.5C 359.5,279.833 359.5,283.167 359.5,286.5C 346.167,286.5 332.833,286.5 319.5,286.5C 319.5,283.167 319.5,279.833 319.5,276.5 Z"/></g>
<g><path style="opacity:1" fill="#13c5cf" d="M 399.5,276.5 C 436.833,276.5 474.167,276.5 511.5,276.5C 511.5,279.833 511.5,283.167 511.5,286.5C 474.167,286.5 436.833,286.5 399.5,286.5C 399.5,283.167 399.5,279.833 399.5,276.5 Z"/></g>
<g><path style="opacity:1" fill="#11c2d2" d="M -0.5,286.5 C 12.8333,286.5 26.1667,286.5 39.5,286.5C 39.5,291.833 39.5,297.167 39.5,302.5C 26.1667,302.5 12.8333,302.5 -0.5,302.5C -0.5,297.167 -0.5,291.833 -0.5,286.5 Z"/></g>
<g><path style="opacity:1" fill="#11c2d2" d="M 118.5,286.5 C 131.833,286.5 145.167,286.5 158.5,286.5C 158.5,291.833 158.5,297.167 158.5,302.5C 145.167,302.5 131.833,302.5 118.5,302.5C 118.5,297.167 118.5,291.833 118.5,286.5 Z"/></g>
<g><path style="opacity:1" fill="#11c2d2" d="M 199.5,286.5 C 212.833,286.5 226.167,286.5 239.5,286.5C 239.5,291.833 239.5,297.167 239.5,302.5C 226.167,302.5 212.833,302.5 199.5,302.5C 199.5,297.167 199.5,291.833 199.5,286.5 Z"/></g>
<g><path style="opacity:1" fill="#11c2d2" d="M 319.5,286.5 C 332.833,286.5 346.167,286.5 359.5,286.5C 359.5,291.833 359.5,297.167 359.5,302.5C 346.167,302.5 332.833,302.5 319.5,302.5C 319.5,297.167 319.5,291.833 319.5,286.5 Z"/></g>
<g><path style="opacity:1" fill="#11c2d2" d="M 399.5,286.5 C 436.833,286.5 474.167,286.5 511.5,286.5C 511.5,291.833 511.5,297.167 511.5,302.5C 474.167,302.5 436.833,302.5 399.5,302.5C 399.5,297.167 399.5,291.833 399.5,286.5 Z"/></g>
<g><path style="opacity:1" fill="#11c1d4" d="M -0.5,302.5 C 12.8333,302.5 26.1667,302.5 39.5,302.5C 39.5,303.833 39.5,305.167 39.5,306.5C 26.1667,306.5 12.8333,306.5 -0.5,306.5C -0.5,305.167 -0.5,303.833 -0.5,302.5 Z"/></g>
<g><path style="opacity:1" fill="#11c1d4" d="M 118.5,302.5 C 131.833,302.5 145.167,302.5 158.5,302.5C 158.5,303.833 158.5,305.167 158.5,306.5C 145.167,306.5 131.833,306.5 118.5,306.5C 118.5,305.167 118.5,303.833 118.5,302.5 Z"/></g>
<g><path style="opacity:1" fill="#11c1d4" d="M 199.5,302.5 C 212.833,302.5 226.167,302.5 239.5,302.5C 239.5,303.833 239.5,305.167 239.5,306.5C 226.167,306.5 212.833,306.5 199.5,306.5C 199.5,305.167 199.5,303.833 199.5,302.5 Z"/></g>
<g><path style="opacity:1" fill="#11c1d4" d="M 319.5,302.5 C 332.833,302.5 346.167,302.5 359.5,302.5C 359.5,303.833 359.5,305.167 359.5,306.5C 346.167,306.5 332.833,306.5 319.5,306.5C 319.5,305.167 319.5,303.833 319.5,302.5 Z"/></g>
<g><path style="opacity:1" fill="#11c1d4" d="M 399.5,302.5 C 436.833,302.5 474.167,302.5 511.5,302.5C 511.5,303.833 511.5,305.167 511.5,306.5C 474.167,306.5 436.833,306.5 399.5,306.5C 399.5,305.167 399.5,303.833 399.5,302.5 Z"/></g>
<g><path style="opacity:1" fill="#10bfd5" d="M -0.5,306.5 C 12.8333,306.5 26.1667,306.5 39.5,306.5C 39.5,309.833 39.5,313.167 39.5,316.5C 26.1667,316.5 12.8333,316.5 -0.5,316.5C -0.5,313.167 -0.5,309.833 -0.5,306.5 Z"/></g>
<g><path style="opacity:1" fill="#10bfd5" d="M 118.5,306.5 C 131.833,306.5 145.167,306.5 158.5,306.5C 158.5,309.833 158.5,313.167 158.5,316.5C 145.167,316.5 131.833,316.5 118.5,316.5C 118.5,313.167 118.5,309.833 118.5,306.5 Z"/></g>
<g><path style="opacity:1" fill="#0fbed7" d="M 199.5,306.5 C 212.833,306.5 226.167,306.5 239.5,306.5C 239.5,309.5 239.5,312.5 239.5,315.5C 252.833,315.5 266.167,315.5 279.5,315.5C 279.5,322.5 279.5,329.5 279.5,336.5C 266.167,336.5 252.833,336.5 239.5,336.5C 239.5,329.833 239.5,323.167 239.5,316.5C 226.167,316.5 212.833,316.5 199.5,316.5C 199.5,313.167 199.5,309.833 199.5,306.5 Z"/></g>
<g><path style="opacity:1" fill="#10bfd5" d="M 319.5,306.5 C 332.833,306.5 346.167,306.5 359.5,306.5C 359.5,309.833 359.5,313.167 359.5,316.5C 346.167,316.5 332.833,316.5 319.5,316.5C 319.5,313.167 319.5,309.833 319.5,306.5 Z"/></g>
<g><path style="opacity:1" fill="#10c0d5" d="M 399.5,306.5 C 436.833,306.5 474.167,306.5 511.5,306.5C 511.5,309.5 511.5,312.5 511.5,315.5C 474.167,315.5 436.833,315.5 399.5,315.5C 399.5,312.5 399.5,309.5 399.5,306.5 Z"/></g>
<g><path style="opacity:1" fill="#0ebcdb" d="M 239.5,336.5 C 252.833,336.5 266.167,336.5 279.5,336.5C 279.5,337.167 279.5,337.833 279.5,338.5C 266.167,338.5 252.833,338.5 239.5,338.5C 239.5,337.833 239.5,337.167 239.5,336.5 Z"/></g>
<g><path style="opacity:1" fill="#0db9dd" d="M 239.5,338.5 C 252.833,338.5 266.167,338.5 279.5,338.5C 279.5,343.833 279.5,349.167 279.5,354.5C 306.167,354.5 332.833,354.5 359.5,354.5C 359.5,356.167 359.5,357.833 359.5,359.5C 332.833,359.5 306.167,359.5 279.5,359.5C 279.5,358.167 279.5,356.833 279.5,355.5C 266.167,355.5 252.833,355.5 239.5,355.5C 239.5,349.833 239.5,344.167 239.5,338.5 Z"/></g>
<g><path style="opacity:1" fill="#0db9dd" d="M -0.5,341.5 C 56.1667,341.5 112.833,341.5 169.5,341.5C 169.5,347.5 169.5,353.5 169.5,359.5C 112.833,359.5 56.1667,359.5 -0.5,359.5C -0.5,353.5 -0.5,347.5 -0.5,341.5 Z"/></g>
<g><path style="opacity:1" fill="#0db8de" d="M 439.5,359.5 C 426.167,359.5 412.833,359.5 399.5,359.5C 399.5,357.833 399.5,356.167 399.5,354.5C 412.833,354.5 426.167,354.5 439.5,354.5C 439.5,356.167 439.5,357.833 439.5,359.5 Z"/></g>
<g><path style="opacity:1" fill="#0db8de" d="M 511.5,354.5 C 511.5,356.167 511.5,357.833 511.5,359.5C 498.167,359.5 484.833,359.5 471.5,359.5C 471.5,357.833 471.5,356.167 471.5,354.5C 484.833,354.5 498.167,354.5 511.5,354.5 Z"/></g>
<g><path style="opacity:1" fill="#0db8de" d="M 239.5,355.5 C 239.5,356.833 239.5,358.167 239.5,359.5C 226.167,359.5 212.833,359.5 199.5,359.5C 199.5,358.167 199.5,356.833 199.5,355.5C 212.833,355.5 226.167,355.5 239.5,355.5 Z"/></g>
<g><path style="opacity:1" fill="#0cb7df" d="M -0.5,359.5 C 56.1667,359.5 112.833,359.5 169.5,359.5C 169.5,362.167 169.5,364.833 169.5,367.5C 112.833,367.5 56.1667,367.5 -0.5,367.5C -0.5,364.833 -0.5,362.167 -0.5,359.5 Z"/></g>
<g><path style="opacity:1" fill="#0cb7df" d="M 199.5,359.5 C 212.833,359.5 226.167,359.5 239.5,359.5C 239.5,362.167 239.5,364.833 239.5,367.5C 226.167,367.5 212.833,367.5 199.5,367.5C 199.5,364.833 199.5,362.167 199.5,359.5 Z"/></g>
<g><path style="opacity:1" fill="#0cb7df" d="M 279.5,359.5 C 306.167,359.5 332.833,359.5 359.5,359.5C 359.5,362.167 359.5,364.833 359.5,367.5C 332.833,367.5 306.167,367.5 279.5,367.5C 279.5,364.833 279.5,362.167 279.5,359.5 Z"/></g>
<g><path style="opacity:1" fill="#0cb7df" d="M 399.5,359.5 C 412.833,359.5 426.167,359.5 439.5,359.5C 439.5,362.167 439.5,364.833 439.5,367.5C 426.167,367.5 412.833,367.5 399.5,367.5C 399.5,364.833 399.5,362.167 399.5,359.5 Z"/></g>
<g><path style="opacity:1" fill="#0cb7df" d="M 471.5,359.5 C 484.833,359.5 498.167,359.5 511.5,359.5C 511.5,362.167 511.5,364.833 511.5,367.5C 498.167,367.5 484.833,367.5 471.5,367.5C 471.5,364.833 471.5,362.167 471.5,359.5 Z"/></g>
<g><path style="opacity:1" fill="#0bb6e1" d="M -0.5,367.5 C 56.1667,367.5 112.833,367.5 169.5,367.5C 169.5,369.5 169.5,371.5 169.5,373.5C 112.833,373.5 56.1667,373.5 -0.5,373.5C -0.5,371.5 -0.5,369.5 -0.5,367.5 Z"/></g>
<g><path style="opacity:1" fill="#0bb6e1" d="M 199.5,367.5 C 212.833,367.5 226.167,367.5 239.5,367.5C 239.5,369.5 239.5,371.5 239.5,373.5C 226.167,373.5 212.833,373.5 199.5,373.5C 199.5,371.5 199.5,369.5 199.5,367.5 Z"/></g>
<g><path style="opacity:1" fill="#0bb6e1" d="M 279.5,367.5 C 306.167,367.5 332.833,367.5 359.5,367.5C 359.5,369.5 359.5,371.5 359.5,373.5C 332.833,373.5 306.167,373.5 279.5,373.5C 279.5,371.5 279.5,369.5 279.5,367.5 Z"/></g>
<g><path style="opacity:1" fill="#0bb6e1" d="M 399.5,367.5 C 412.833,367.5 426.167,367.5 439.5,367.5C 439.5,369.5 439.5,371.5 439.5,373.5C 426.167,373.5 412.833,373.5 399.5,373.5C 399.5,371.5 399.5,369.5 399.5,367.5 Z"/></g>
<g><path style="opacity:1" fill="#0bb6e1" d="M 471.5,367.5 C 484.833,367.5 498.167,367.5 511.5,367.5C 511.5,369.5 511.5,371.5 511.5,373.5C 498.167,373.5 484.833,373.5 471.5,373.5C 471.5,371.5 471.5,369.5 471.5,367.5 Z"/></g>
<g><path style="opacity:1" fill="#0ab3e4" d="M -0.5,373.5 C 56.1667,373.5 112.833,373.5 169.5,373.5C 169.5,383.167 169.5,392.833 169.5,402.5C 156.167,402.5 142.833,402.5 129.5,402.5C 129.5,395.5 129.5,388.5 129.5,381.5C 99.5,381.5 69.5,381.5 39.5,381.5C 39.5,388.5 39.5,395.5 39.5,402.5C 26.1667,402.5 12.8333,402.5 -0.5,402.5C -0.5,392.833 -0.5,383.167 -0.5,373.5 Z"/></g>
<g><path style="opacity:1" fill="#0ab3e4" d="M 199.5,373.5 C 212.833,373.5 226.167,373.5 239.5,373.5C 239.5,383.167 239.5,392.833 239.5,402.5C 226.167,402.5 212.833,402.5 199.5,402.5C 199.5,392.833 199.5,383.167 199.5,373.5 Z"/></g>
<g><path style="opacity:1" fill="#0ab3e3" d="M 279.5,373.5 C 306.167,373.5 332.833,373.5 359.5,373.5C 359.5,380.5 359.5,387.5 359.5,394.5C 332.833,394.5 306.167,394.5 279.5,394.5C 279.5,387.5 279.5,380.5 279.5,373.5 Z"/></g>
<g><path style="opacity:1" fill="#0ab3e3" d="M 399.5,373.5 C 412.833,373.5 426.167,373.5 439.5,373.5C 439.5,380.5 439.5,387.5 439.5,394.5C 426.167,394.5 412.833,394.5 399.5,394.5C 399.5,387.5 399.5,380.5 399.5,373.5 Z"/></g>
<g><path style="opacity:1" fill="#0ab3e4" d="M 471.5,373.5 C 484.833,373.5 498.167,373.5 511.5,373.5C 511.5,383.167 511.5,392.833 511.5,402.5C 498.167,402.5 484.833,402.5 471.5,402.5C 471.5,392.833 471.5,383.167 471.5,373.5 Z"/></g>
<g><path style="opacity:1" fill="#09b1e6" d="M 359.5,394.5 C 372.833,394.5 386.167,394.5 399.5,394.5C 399.5,397.167 399.5,399.833 399.5,402.5C 386.167,402.5 372.833,402.5 359.5,402.5C 359.5,399.833 359.5,397.167 359.5,394.5 Z"/></g>
<g><path style="opacity:1" fill="#08afe8" d="M -0.5,402.5 C 12.8333,402.5 26.1667,402.5 39.5,402.5C 39.5,406.5 39.5,410.5 39.5,414.5C 26.1667,414.5 12.8333,414.5 -0.5,414.5C -0.5,410.5 -0.5,406.5 -0.5,402.5 Z"/></g>
<g><path style="opacity:1" fill="#08afe8" d="M 129.5,402.5 C 142.833,402.5 156.167,402.5 169.5,402.5C 169.5,406.5 169.5,410.5 169.5,414.5C 156.167,414.5 142.833,414.5 129.5,414.5C 129.5,410.5 129.5,406.5 129.5,402.5 Z"/></g>
<g><path style="opacity:1" fill="#08afe8" d="M 199.5,402.5 C 212.833,402.5 226.167,402.5 239.5,402.5C 239.5,406.5 239.5,410.5 239.5,414.5C 226.167,414.5 212.833,414.5 199.5,414.5C 199.5,410.5 199.5,406.5 199.5,402.5 Z"/></g>
<g><path style="opacity:1" fill="#08afe8" d="M 359.5,402.5 C 372.833,402.5 386.167,402.5 399.5,402.5C 399.5,406.5 399.5,410.5 399.5,414.5C 386.167,414.5 372.833,414.5 359.5,414.5C 359.5,410.5 359.5,406.5 359.5,402.5 Z"/></g>
<g><path style="opacity:1" fill="#08afe8" d="M 471.5,402.5 C 484.833,402.5 498.167,402.5 511.5,402.5C 511.5,406.5 511.5,410.5 511.5,414.5C 498.167,414.5 484.833,414.5 471.5,414.5C 471.5,410.5 471.5,406.5 471.5,402.5 Z"/></g>
<g><path style="opacity:1" fill="#08afe9" d="M 104.5,414.5 C 91.1667,414.5 77.8333,414.5 64.5,414.5C 64.5,411.833 64.5,409.167 64.5,406.5C 77.8333,406.5 91.1667,406.5 104.5,406.5C 104.5,409.167 104.5,411.833 104.5,414.5 Z"/></g>
<g><path style="opacity:1" fill="#07adeb" d="M -0.5,414.5 C 12.8333,414.5 26.1667,414.5 39.5,414.5C 39.5,420.5 39.5,426.5 39.5,432.5C 26.1667,432.5 12.8333,432.5 -0.5,432.5C -0.5,426.5 -0.5,420.5 -0.5,414.5 Z"/></g>
<g><path style="opacity:1" fill="#07adeb" d="M 64.5,414.5 C 77.8333,414.5 91.1667,414.5 104.5,414.5C 104.5,420.5 104.5,426.5 104.5,432.5C 91.1667,432.5 77.8333,432.5 64.5,432.5C 64.5,426.5 64.5,420.5 64.5,414.5 Z"/></g>
<g><path style="opacity:1" fill="#07adeb" d="M 129.5,414.5 C 142.833,414.5 156.167,414.5 169.5,414.5C 169.5,420.5 169.5,426.5 169.5,432.5C 156.167,432.5 142.833,432.5 129.5,432.5C 129.5,426.5 129.5,420.5 129.5,414.5 Z"/></g>
<g><path style="opacity:1" fill="#07adeb" d="M 199.5,414.5 C 212.833,414.5 226.167,414.5 239.5,414.5C 239.5,420.167 239.5,425.833 239.5,431.5C 226.167,431.5 212.833,431.5 199.5,431.5C 199.5,425.833 199.5,420.167 199.5,414.5 Z"/></g>
<g><path style="opacity:1" fill="#07adeb" d="M 359.5,414.5 C 372.833,414.5 386.167,414.5 399.5,414.5C 399.5,420.5 399.5,426.5 399.5,432.5C 386.167,432.5 372.833,432.5 359.5,432.5C 359.5,426.5 359.5,420.5 359.5,414.5 Z"/></g>
<g><path style="opacity:1" fill="#07adeb" d="M 471.5,414.5 C 484.833,414.5 498.167,414.5 511.5,414.5C 511.5,420.5 511.5,426.5 511.5,432.5C 498.167,432.5 484.833,432.5 471.5,432.5C 471.5,426.5 471.5,420.5 471.5,414.5 Z"/></g>
<g><path style="opacity:1" fill="#06abed" d="M 239.5,431.5 C 266.521,430.842 293.188,431.509 319.5,433.5C 292.833,433.5 266.167,433.5 239.5,433.5C 239.5,432.833 239.5,432.167 239.5,431.5 Z"/></g>
<g><path style="opacity:1" fill="#05a9ef" d="M -0.5,432.5 C 12.8333,432.5 26.1667,432.5 39.5,432.5C 39.5,438.167 39.5,443.833 39.5,449.5C 26.1667,449.5 12.8333,449.5 -0.5,449.5C -0.5,443.833 -0.5,438.167 -0.5,432.5 Z"/></g>
<g><path style="opacity:1" fill="#05aaee" d="M 64.5,432.5 C 77.8333,432.5 91.1667,432.5 104.5,432.5C 104.5,437.167 104.5,441.833 104.5,446.5C 91.1667,446.5 77.8333,446.5 64.5,446.5C 64.5,441.833 64.5,437.167 64.5,432.5 Z"/></g>
<g><path style="opacity:1" fill="#05a9ef" d="M 129.5,432.5 C 142.833,432.5 156.167,432.5 169.5,432.5C 169.5,438.167 169.5,443.833 169.5,449.5C 156.167,449.5 142.833,449.5 129.5,449.5C 129.5,443.833 129.5,438.167 129.5,432.5 Z"/></g>
<g><path style="opacity:1" fill="#05a9ef" d="M 239.5,433.5 C 266.167,433.5 292.833,433.5 319.5,433.5C 319.5,438.833 319.5,444.167 319.5,449.5C 292.833,449.5 266.167,449.5 239.5,449.5C 239.5,444.167 239.5,438.833 239.5,433.5 Z"/></g>
<g><path style="opacity:1" fill="#06abed" d="M 359.5,432.5 C 372.833,432.5 386.167,432.5 399.5,432.5C 399.5,433.167 399.5,433.833 399.5,434.5C 385.791,435.148 372.458,434.481 359.5,432.5 Z"/></g>
<g><path style="opacity:1" fill="#06abed" d="M 471.5,432.5 C 484.833,432.5 498.167,432.5 511.5,432.5C 511.5,433.167 511.5,433.833 511.5,434.5C 498.167,434.5 484.833,434.5 471.5,434.5C 471.5,433.833 471.5,433.167 471.5,432.5 Z"/></g>
<g><path style="opacity:1" fill="#05a9ef" d="M 399.5,434.5 C 423.5,434.5 447.5,434.5 471.5,434.5C 471.5,439.5 471.5,444.5 471.5,449.5C 447.5,449.5 423.5,449.5 399.5,449.5C 399.5,444.5 399.5,439.5 399.5,434.5 Z"/></g>
<g><path style="opacity:1" fill="#04a7f2" d="M -0.5,449.5 C 12.8333,449.5 26.1667,449.5 39.5,449.5C 39.5,454.167 39.5,458.833 39.5,463.5C 26.1667,463.5 12.8333,463.5 -0.5,463.5C -0.5,458.833 -0.5,454.167 -0.5,449.5 Z"/></g>
<g><path style="opacity:1" fill="#04a7f2" d="M 129.5,449.5 C 142.833,449.5 156.167,449.5 169.5,449.5C 169.5,454.167 169.5,458.833 169.5,463.5C 156.167,463.5 142.833,463.5 129.5,463.5C 129.5,458.833 129.5,454.167 129.5,449.5 Z"/></g>
<g><path style="opacity:1" fill="#04a7f2" d="M 239.5,449.5 C 266.167,449.5 292.833,449.5 319.5,449.5C 319.5,454.167 319.5,458.833 319.5,463.5C 292.833,463.5 266.167,463.5 239.5,463.5C 239.5,458.833 239.5,454.167 239.5,449.5 Z"/></g>
<g><path style="opacity:1" fill="#04a7f2" d="M 399.5,449.5 C 423.5,449.5 447.5,449.5 471.5,449.5C 471.5,454.167 471.5,458.833 471.5,463.5C 447.5,463.5 423.5,463.5 399.5,463.5C 399.5,458.833 399.5,454.167 399.5,449.5 Z"/></g>
<g><path style="opacity:1" fill="#02a4f6" d="M -0.5,463.5 C 12.8333,463.5 26.1667,463.5 39.5,463.5C 39.5,466.167 39.5,468.833 39.5,471.5C 69.5,471.5 99.5,471.5 129.5,471.5C 129.5,468.833 129.5,466.167 129.5,463.5C 142.833,463.5 156.167,463.5 169.5,463.5C 169.5,470.833 169.5,478.167 169.5,485.5C 112.833,485.5 56.1667,485.5 -0.5,485.5C -0.5,478.167 -0.5,470.833 -0.5,463.5 Z"/></g>
<g><path style="opacity:1" fill="#03a4f5" d="M 239.5,463.5 C 266.167,463.5 292.833,463.5 319.5,463.5C 319.5,466.167 319.5,468.833 319.5,471.5C 332.5,471.5 345.5,471.5 358.5,471.5C 358.5,476.167 358.5,480.833 358.5,485.5C 345.167,485.5 331.833,485.5 318.5,485.5C 318.5,480.833 318.5,476.167 318.5,471.5C 305.5,471.5 292.5,471.5 279.5,471.5C 279.5,476.167 279.5,480.833 279.5,485.5C 266.167,485.5 252.833,485.5 239.5,485.5C 239.5,478.167 239.5,470.833 239.5,463.5 Z"/></g>
<g><path style="opacity:1" fill="#03a4f5" d="M 399.5,463.5 C 423.5,463.5 447.5,463.5 471.5,463.5C 471.5,467.167 471.5,470.833 471.5,474.5C 460.833,474.5 450.167,474.5 439.5,474.5C 439.5,478.167 439.5,481.833 439.5,485.5C 426.167,485.5 412.833,485.5 399.5,485.5C 399.5,478.167 399.5,470.833 399.5,463.5 Z"/></g>
<g><path style="opacity:1" fill="#02a1f8" d="M -0.5,485.5 C 56.1667,485.5 112.833,485.5 169.5,485.5C 169.5,488.167 169.5,490.833 169.5,493.5C 112.833,493.5 56.1667,493.5 -0.5,493.5C -0.5,490.833 -0.5,488.167 -0.5,485.5 Z"/></g>
<g><path style="opacity:1" fill="#02a1f8" d="M 239.5,485.5 C 252.833,485.5 266.167,485.5 279.5,485.5C 279.5,488.167 279.5,490.833 279.5,493.5C 266.167,493.5 252.833,493.5 239.5,493.5C 239.5,490.833 239.5,488.167 239.5,485.5 Z"/></g>
<g><path style="opacity:1" fill="#02a1f8" d="M 318.5,485.5 C 331.833,485.5 345.167,485.5 358.5,485.5C 358.5,488.167 358.5,490.833 358.5,493.5C 345.167,493.5 331.833,493.5 318.5,493.5C 318.5,490.833 318.5,488.167 318.5,485.5 Z"/></g>
<g><path style="opacity:1" fill="#02a1f8" d="M 399.5,485.5 C 412.833,485.5 426.167,485.5 439.5,485.5C 439.5,488.167 439.5,490.833 439.5,493.5C 426.167,493.5 412.833,493.5 399.5,493.5C 399.5,490.833 399.5,488.167 399.5,485.5 Z"/></g>
<g><path style="opacity:1" fill="#009ffb" d="M -0.5,493.5 C 56.1667,493.5 112.833,493.5 169.5,493.5C 169.5,499.5 169.5,505.5 169.5,511.5C 112.833,511.5 56.1667,511.5 -0.5,511.5C -0.5,505.5 -0.5,499.5 -0.5,493.5 Z"/></g>
<g><path style="opacity:1" fill="#009ffb" d="M 239.5,493.5 C 252.833,493.5 266.167,493.5 279.5,493.5C 279.5,499.5 279.5,505.5 279.5,511.5C 266.167,511.5 252.833,511.5 239.5,511.5C 239.5,505.5 239.5,499.5 239.5,493.5 Z"/></g>
<g><path style="opacity:1" fill="#009ffb" d="M 318.5,493.5 C 331.833,493.5 345.167,493.5 358.5,493.5C 358.5,499.5 358.5,505.5 358.5,511.5C 345.167,511.5 331.833,511.5 318.5,511.5C 318.5,505.5 318.5,499.5 318.5,493.5 Z"/></g>
<g><path style="opacity:1" fill="#009ffb" d="M 399.5,493.5 C 412.833,493.5 426.167,493.5 439.5,493.5C 439.5,499.5 439.5,505.5 439.5,511.5C 426.167,511.5 412.833,511.5 399.5,511.5C 399.5,505.5 399.5,499.5 399.5,493.5 Z"/></g>
</svg>
