<?xml version="1.0" encoding="UTF-8"?>
<svg version="1.1" xmlns="http://www.w3.org/2000/svg" width="799" height="220">
<path d="M0 0 C16.92649557 13.60532932 27.13935749 32.35623548 29.78342438 53.86059189 C30.10636816 57.05074107 30.1435288 60.21710932 30.16113281 63.42236328 C30.16609772 64.11615082 30.17106262 64.80993835 30.17617798 65.52474976 C30.19062895 67.78994784 30.19756937 70.05507616 30.203125 72.3203125 C30.20736607 73.48959101 30.20736607 73.48959101 30.21169281 74.6824913 C30.22660866 78.80021241 30.23588861 82.91789912 30.24023438 87.03564453 C30.24573686 91.27683783 30.26982368 95.51771301 30.29820633 99.75880623 C30.31685364 103.03426029 30.32203921 106.30963757 30.32357025 109.58514023 C30.32658784 111.14878979 30.33458609 112.71243829 30.34775543 114.27603531 C30.36487571 116.46307883 30.36292268 118.64934182 30.35644531 120.83642578 C30.36191376 122.69885422 30.36191376 122.69885422 30.36749268 124.59890747 C29.83404051 129.53593147 28.03330246 133.6541691 24.125 136.8125 C19.29337694 140.19463614 15.04078865 140.12665362 9.24462891 140.14526367 C8.25555038 140.15030159 8.25555038 140.15030159 7.24649048 140.15544128 C5.07316175 140.1649125 2.89991057 140.16689334 0.7265625 140.16796875 C-0.79977448 140.17118707 -2.32611116 140.17455157 -3.85244751 140.17805481 C-7.05512199 140.18403875 -10.25776954 140.18589577 -13.46044922 140.18530273 C-17.52253604 140.18520186 -21.58444511 140.19877901 -25.6464901 140.21607494 C-28.80393226 140.22731935 -31.96133337 140.22921807 -35.11879349 140.22869301 C-36.61358876 140.22985739 -38.10838566 140.23419013 -39.60316086 140.24202538 C-63.46611116 140.35527191 -83.65136897 136.28949657 -101.65625 119.3671875 C-117.39795763 103.46806279 -124.26012471 83.22091238 -124.2487793 61.12231445 C-123.94286318 39.34945019 -115.39422627 20.26679062 -100 5 C-72.79796735 -20.82290862 -29.811818 -21.9217088 0 0 Z M-84 28 C-94.25830669 40.40282339 -96.03460632 55.44011427 -95 71 C-92.94090723 84.29492968 -86.10538611 95.27916383 -75.8046875 103.8203125 C-65.08467549 111.46648594 -52.0994116 114.61044672 -39.109375 112.5390625 C-25.54525213 109.52086762 -15.14523784 103.55302108 -6.99609375 92.2109375 C1.00384132 79.55133252 3.05751773 64.7964371 0.2734375 50.1875 C-3.28729515 36.75514269 -9.96672566 25.12306428 -22 17.5625 C-43.41550674 5.80887305 -67.4616665 10.25082423 -84 28 Z " fill="#FEC421" transform="translate(743,68)"/>
<path d="M0 0 C17.28477779 12.751463 28.90553501 30.04580939 32.3583374 51.43644714 C33.18814918 58.47095017 33.11461842 65.53193485 33.12109375 72.60546875 C33.12753624 74.27548837 33.13426563 75.94550691 33.14126587 77.61552429 C33.15315776 81.09242371 33.15695444 84.5692243 33.15576172 88.04614258 C33.15555746 92.48902424 33.18300499 96.93127394 33.21730614 101.37400532 C33.23957897 104.8133585 33.24359936 108.25255864 33.24254227 111.69197655 C33.24489203 113.33016349 33.25368018 114.96835506 33.269207 116.60647011 C33.28890293 118.89605672 33.28301923 121.18426605 33.27099609 123.47387695 C33.27384613 124.77227005 33.27669617 126.07066315 33.27963257 127.40840149 C32.56381828 132.68684155 30.6697998 136.60496169 26.34765625 139.9296875 C21.61451257 142.00765302 17.15939859 142.18348123 12.02978516 142.19995117 C11.04070663 142.20498909 11.04070663 142.20498909 10.03164673 142.21012878 C7.858318 142.2196 5.68506682 142.22158084 3.51171875 142.22265625 C1.98538177 142.22587457 0.45904509 142.22923907 -1.06729126 142.23274231 C-4.26996574 142.23872625 -7.47261329 142.24058327 -10.67529297 142.23999023 C-14.73737979 142.23988936 -18.79928886 142.25346651 -22.86133385 142.27076244 C-26.01877601 142.28200685 -29.17617712 142.28390557 -32.33363724 142.28338051 C-33.82843251 142.28454489 -35.32322941 142.28887763 -36.81800461 142.29671288 C-60.30650765 142.4081824 -81.2679773 138.1333594 -98.96875 121.3671875 C-113.95679878 105.93601379 -120.87543796 85.76199627 -121.58984375 64.4921875 C-120.76827448 41.20248471 -112.03679168 21.26119831 -95.21484375 5.0546875 C-68.24950194 -17.41643068 -29.06540931 -19.48846149 0 0 Z M-81.21484375 30.0546875 C-91.14450597 43.03818924 -93.8161648 57.55494298 -91.90625 73.65625 C-89.42778372 87.8251811 -81.71595106 99.50768856 -70.21484375 108.0546875 C-57.3642038 115.58908553 -43.71810624 116.7162432 -29.44921875 113.08203125 C-17.59316432 109.31615889 -8.01029794 101.77897576 -2.12988281 90.74804688 C4.70900919 77.1578474 6.02200392 62.32811663 2.22265625 47.5546875 C-2.04062906 34.71995487 -9.95739602 24.38268283 -22.02734375 18.1796875 C-27.94064904 15.30868345 -33.66167497 13.6095085 -40.21484375 13.0546875 C-40.89804688 12.99667969 -41.58125 12.93867187 -42.28515625 12.87890625 C-57.57523423 12.29082633 -71.03610694 18.83694469 -81.21484375 30.0546875 Z " fill="#FEC421" transform="translate(238.21484375,65.9453125)"/>
<path d="M0 0 C5.62582394 4.86868579 10.53341925 9.32567659 11.5 16.9375 C11.31982427 21.70314808 9.39164952 23.76251637 6 27 C2.9903298 29.28319808 -0.11725828 29.42337753 -3.859375 29.3125 C-9.35730482 28.50988251 -13.68884232 25.31757056 -18 22 C-29.46844651 13.19863407 -42.81740063 11.69901785 -56.98828125 13.34765625 C-62.17835998 14.18340641 -66.37860677 15.39306023 -71 18 C-71.66 18 -72.32 18 -73 18 C-75.41214904 23.34741473 -75.83050926 28.20391958 -75 34 C-70.20103682 41.04847717 -61.11959454 43.51355581 -53.1875 45.4375 C-51.51041113 45.86325943 -49.83332796 46.28904134 -48.15625 46.71484375 C-46.43757676 47.14353702 -44.71882694 47.57192341 -43 48 C-1.84581887 58.34472299 -1.84581887 58.34472299 9 74 C14.90433383 83.87895856 15.52073685 94.28002409 13.3359375 105.37109375 C10.02703279 116.66452938 2.27309139 125.72466965 -7.82421875 131.66015625 C-29.44631813 142.92801086 -55.40058707 142.75208915 -78.40234375 135.67578125 C-90.6857028 131.69401143 -100.82222577 126.28230469 -110 117 C-111.85858852 113.28282296 -111.43689228 109.05685692 -111 105 C-108.95260457 100.57762588 -106.37413781 97.93330429 -101.9921875 95.6953125 C-98.28995194 94.4031597 -94.84447375 94.31323397 -91 95 C-87.98494483 96.57034123 -85.63800593 98.45936044 -83.0546875 100.6484375 C-70.57761969 110.88947166 -55.91529705 114.17407929 -40 113 C-31.86733433 111.8876009 -23.99209834 109.95096265 -18 104 C-15.89317598 99.7524802 -15.25309974 95.69348437 -16 91 C-20.73450682 81.88169057 -28.72251746 79.0491726 -38 76 C-42.80299911 74.68865485 -47.63971684 73.57719955 -52.5 72.5 C-68.75368376 68.89764591 -88.38859926 63.9923202 -98.69140625 49.64453125 C-104.84357895 39.84552848 -106.77635138 29.82989262 -104.46484375 18.33984375 C-100.69225531 6.32116035 -93.38208681 -0.49594266 -82.62890625 -6.65234375 C-57.21748682 -19.67900007 -23.04957291 -16.58019698 0 0 Z " fill="#898882" transform="translate(413,67)"/>
<path d="M0 0 C2.8125 2.5625 2.8125 2.5625 5 5 C5.52464844 5.54398438 6.04929687 6.08796875 6.58984375 6.6484375 C9.92498011 10.24253739 12.10926584 12.86450565 12 18 C10.21952277 23.13196378 7.44678458 25.94828509 3 29 C-1.37551349 30.52191774 -4.6646952 29.97164424 -8.9453125 28.2109375 C-11.31951103 26.81169502 -12.88234458 25.21014757 -14.75 23.1875 C-20.48220822 17.02310148 -28.88697997 12.45256199 -37.39086914 11.82299805 C-53.51297798 11.44938072 -65.62235278 11.56702644 -78 23 C-88.61137341 33.24879801 -91.97064608 47.14640364 -92.375 61.5625 C-91.96305194 75.55156962 -88.0963988 88.9036012 -78 99 C-66.82386604 108.37886288 -53.44847278 112.0136046 -39 111 C-29.24571014 109.51106393 -20.87779628 106.44315031 -12.8125 100.75 C-9.36281817 98.60353131 -7.05964697 98.07122188 -3 98 C2.21230653 99.59019521 4.98116952 101.47175428 8 106 C9.63023814 109.26047629 9.4673535 111.37801035 9 115 C2.28511906 126.52107997 -11.75030337 132.58701757 -24 136 C-45.27047026 141.23909935 -66.92912014 138.31455077 -85.87109375 127.3359375 C-103.06553969 116.74397216 -114.63134616 101.57590036 -119.66796875 81.90625 C-121.20401353 74.89870606 -121.44605136 68.15250367 -121.375 61 C-121.38660156 59.83210938 -121.39820313 58.66421875 -121.41015625 57.4609375 C-121.34193091 36.94785185 -113.7275181 19.01742838 -99.6875 4.1875 C-72.58506695 -21.32616973 -28.94753777 -23.6711471 0 0 Z " fill="#898881" transform="translate(575,69)"/>
<path d="M0 0 C3.49788859 2.79315428 5.88069205 5.56990184 6.39285278 10.07049561 C6.38619095 11.20300751 6.38619095 11.20300751 6.37939453 12.35839844 C6.37924347 13.21898865 6.37909241 14.07957886 6.37893677 14.96624756 C6.3686142 15.88617493 6.35829163 16.80610229 6.34765625 17.75390625 C6.34482635 18.70267639 6.34199646 19.65144653 6.33908081 20.62896729 C6.32789823 23.65511764 6.30279705 26.68097055 6.27734375 29.70703125 C6.26731147 31.76041239 6.25818605 33.81379817 6.25 35.8671875 C6.22796516 40.89724979 6.19344837 45.92709011 6.15234375 50.95703125 C7.18790405 50.9413208 7.18790405 50.9413208 8.24438477 50.92529297 C11.40116674 50.88347428 14.5578902 50.85762323 17.71484375 50.83203125 C18.80087891 50.81527344 19.88691406 50.79851563 21.00585938 50.78125 C34.41658771 50.69972582 34.41658771 50.69972582 38.89453125 54.39453125 C42.20010541 58.95394388 43.70138158 61.24703785 43.15234375 66.95703125 C40.36849792 72.02760758 37.65510606 75.12277715 32.15234375 76.95703125 C30.16031345 77.03995078 28.16560662 77.06441302 26.171875 77.0546875 C25.00849609 77.05146484 23.84511719 77.04824219 22.64648438 77.04492188 C21.43154297 77.03654297 20.21660156 77.02816406 18.96484375 77.01953125 C17.73830078 77.01501953 16.51175781 77.01050781 15.24804688 77.00585938 C12.21609707 76.9940619 9.18424469 76.97760046 6.15234375 76.95703125 C6.23700362 85.9286058 6.3319847 94.89999617 6.43987083 103.87132168 C6.48965695 108.03779762 6.53598743 112.20425035 6.57421875 116.37084961 C6.61129638 120.39749095 6.65771487 124.42392938 6.71040726 128.45039558 C6.72883253 129.98080928 6.74398349 131.51126628 6.75568771 133.04174614 C6.37381761 147.50779551 6.37381761 147.50779551 12.02734375 160.33203125 C12.51976562 160.95851562 13.0121875 161.585 13.51953125 162.23046875 C18.34332155 167.33122309 22.27159706 167.5263021 29.08984375 167.95703125 C40.01912135 168.65045333 40.01912135 168.65045333 44.15234375 171.95703125 C47.5854215 176.15301517 49.15234375 179.50268379 49.15234375 184.95703125 C47.75750649 189.57472231 45.87201349 192.38423289 42.08984375 195.39453125 C34.16169485 199.61163173 23.3406596 198.96924449 14.6484375 197.2734375 C1.34243739 193.09254307 -8.61003241 185.67828221 -15.5 173.5703125 C-21.44383982 162.0444318 -23.14668908 151.79747316 -23.12231445 138.92529297 C-23.12666784 137.51514416 -23.13185307 136.10499772 -23.13780212 134.69485474 C-23.15113154 130.88510283 -23.15177792 127.07545049 -23.14923882 123.26567984 C-23.14816565 120.0796451 -23.15306098 116.89363022 -23.15784425 113.70759976 C-23.16891704 106.19160723 -23.16938847 98.6756647 -23.16333008 91.15966797 C-23.15728242 83.413794 -23.16962642 75.66810131 -23.19090015 67.92225826 C-23.20852164 61.26047545 -23.21451691 54.59875034 -23.2112624 47.93694508 C-23.20945132 43.96294728 -23.21206879 39.98907901 -23.22597694 36.01510239 C-23.23856077 32.28035187 -23.23660616 28.54588437 -23.22356606 24.81113815 C-23.22007748 22.79178885 -23.23137224 20.77243086 -23.24313354 18.75311279 C-23.23611923 17.5447879 -23.22910492 16.33646301 -23.22187805 15.09152222 C-23.22204579 14.04553801 -23.22221354 12.99955379 -23.22238636 11.92187309 C-22.62181823 7.17021459 -20.86403306 3.92128617 -17.41015625 0.64453125 C-12.22202163 -2.77204521 -5.50597203 -3.10802227 0 0 Z " fill="#898882" transform="translate(43.84765625,8.04296875)"/>
<path d="M0 0 C-1.46966358 3.39859703 -3.38037514 5.64963709 -6 8.25 C-6.70125 8.95640625 -7.4025 9.6628125 -8.125 10.390625 C-10 12 -10 12 -12 12 C-10.53033642 8.60140297 -8.61962486 6.35036291 -6 3.75 C-5.29875 3.04359375 -4.5975 2.3371875 -3.875 1.609375 C-2 0 -2 0 0 0 Z " fill="#AFAEAA" transform="translate(482,69)"/>
<path d="M0 0 C0.66 0 1.32 0 2 0 C0.59155282 3.21524305 -1.10344786 5.32183868 -3.625 7.75 C-4.57246094 8.67039062 -4.57246094 8.67039062 -5.5390625 9.609375 C-6.02117187 10.06828125 -6.50328125 10.5271875 -7 11 C-7.66 10.67 -8.32 10.34 -9 10 C-7.5484451 8.32742645 -6.08855591 6.66208242 -4.625 5 C-3.81289062 4.071875 -3.00078125 3.14375 -2.1640625 2.1875 C-1.44992188 1.465625 -0.73578125 0.74375 0 0 Z " fill="#FEDC79" transform="translate(143,71)"/>
</svg>
