<?xml version="1.0" encoding="UTF-8"?>
<!DOCTYPE svg PUBLIC "-//W3C//DTD SVG 1.1//EN" "http://www.w3.org/Graphics/SVG/1.1/DTD/svg11.dtd">
<svg xmlns="http://www.w3.org/2000/svg" version="1.1" width="512px" height="512px" style="shape-rendering:geometricPrecision; text-rendering:geometricPrecision; image-rendering:optimizeQuality; fill-rule:evenodd; clip-rule:evenodd" xmlns:xlink="http://www.w3.org/1999/xlink">
<g><path style="opacity:0.887" fill="#000000" d="M 250.5,-0.5 C 253.833,-0.5 257.167,-0.5 260.5,-0.5C 265.246,3.34233 266.746,8.34233 265,14.5C 261.345,19.2745 256.512,20.7745 250.5,19C 245.725,15.3449 244.225,10.5116 246,4.5C 247.366,2.63834 248.866,0.971672 250.5,-0.5 Z"/></g>
<g><path style="opacity:0.919" fill="#000000" d="M 196.5,21.5 C 199.794,21.259 202.794,22.0924 205.5,24C 211,29.5 216.5,35 222,40.5C 225.985,49.6621 223.151,55.3287 213.5,57.5C 211.885,56.846 210.218,56.346 208.5,56C 201.333,50.1667 194.833,43.6667 189,36.5C 186.967,29.0764 189.467,24.0764 196.5,21.5 Z"/></g>
<g><path style="opacity:0.922" fill="#000000" d="M 307.5,21.5 C 318.49,19.9918 323.324,24.6585 322,35.5C 316.199,42.3025 310.032,48.8025 303.5,55C 298.387,58.0232 293.553,57.5232 289,53.5C 286.365,49.6492 286.031,45.6492 288,41.5C 294.032,34.3024 300.532,27.6357 307.5,21.5 Z"/></g>
<g><path style="opacity:0.909" fill="#000000" d="M 72.5,25.5 C 80.1627,24.0761 84.9961,27.0761 87,34.5C 89.4826,44.4136 85.9826,50.7469 76.5,53.5C 72.4241,52.9213 69.2574,50.9213 67,47.5C 66.3333,42.1667 66.3333,36.8333 67,31.5C 68.3597,28.9774 70.193,26.9774 72.5,25.5 Z"/></g>
<g><path style="opacity:0.908" fill="#000000" d="M 430.5,25.5 C 442.757,25.9608 447.257,32.2941 444,44.5C 441.346,52.126 436.179,54.626 428.5,52C 426.622,50.4571 425.122,48.6238 424,46.5C 422.873,40.2453 423.54,34.2453 426,28.5C 427.652,27.6006 429.152,26.6006 430.5,25.5 Z"/></g>
<g><path style="opacity:0.961" fill="#000000" d="M 251.5,37.5 C 257.07,36.4161 261.57,38.0827 265,42.5C 265.667,54.5 265.667,66.5 265,78.5C 258.667,86.5 252.333,86.5 246,78.5C 245.333,66.5 245.333,54.5 246,42.5C 247.73,40.5981 249.563,38.9314 251.5,37.5 Z"/></g>
<g><path style="opacity:0.924" fill="#000000" d="M 44.5,53.5 C 49.8437,53.334 55.1771,53.5006 60.5,54C 68.5,60.3333 68.5,66.6667 60.5,73C 54.3877,73.9094 48.3877,73.576 42.5,72C 36.7951,65.0773 37.4618,58.9107 44.5,53.5 Z"/></g>
<g><path style="opacity:0.928" fill="#000000" d="M 92.5,53.5 C 98.6208,53.0899 104.621,53.5899 110.5,55C 114.714,59.2002 115.548,64.0336 113,69.5C 111.786,71.0488 110.286,72.2155 108.5,73C 103.167,73.6667 97.8333,73.6667 92.5,73C 87.7255,69.3449 86.2255,64.5116 88,58.5C 89.3657,56.6383 90.8657,54.9717 92.5,53.5 Z"/></g>
<g><path style="opacity:0.924" fill="#000000" d="M 401.5,53.5 C 407.621,53.0899 413.621,53.5899 419.5,55C 425.259,61.7691 424.592,67.7691 417.5,73C 412.167,73.6667 406.833,73.6667 401.5,73C 393.581,66.5063 393.581,60.0063 401.5,53.5 Z"/></g>
<g><path style="opacity:0.928" fill="#000000" d="M 450.5,53.5 C 455.844,53.334 461.177,53.5006 466.5,54C 471.916,58.6113 472.916,64.1113 469.5,70.5C 468.5,71.3333 467.5,72.1667 466.5,73C 460.388,73.9094 454.388,73.576 448.5,72C 442.721,65.0675 443.388,58.9008 450.5,53.5 Z"/></g>
<g><path style="opacity:0.909" fill="#000000" d="M 75.5,73.5 C 83.8343,74.6387 87.8343,79.4721 87.5,88C 85.8551,101.574 79.3551,104.741 68,97.5C 66.424,91.6123 66.0906,85.6123 67,79.5C 69.21,76.4323 72.0433,74.4323 75.5,73.5 Z"/></g>
<g><path style="opacity:0.908" fill="#000000" d="M 432.5,73.5 C 441.302,74.2394 445.302,79.0728 444.5,88C 443.515,100.741 437.348,104.241 426,98.5C 423.106,91.9746 422.772,85.308 425,78.5C 426.913,75.7197 429.413,74.053 432.5,73.5 Z"/></g>
<g><path style="opacity:0.987" fill="#010100" d="M 511.5,382.5 C 511.5,410.5 511.5,438.5 511.5,466.5C 510.028,468.134 508.362,469.634 506.5,471C 478.169,471.5 449.835,471.667 421.5,471.5C 421.667,482.838 421.5,494.172 421,505.5C 419.64,508.023 417.807,510.023 415.5,511.5C 374.5,511.5 333.5,511.5 292.5,511.5C 289.07,509.065 287.404,505.731 287.5,501.5C 288.172,496.661 290.838,493.495 295.5,492C 312.497,491.5 329.497,491.333 346.5,491.5C 346.333,476.163 346.5,460.83 347,445.5C 349.653,438.504 354.486,436.337 361.5,439C 363.81,440.637 365.31,442.804 366,445.5C 366.5,460.83 366.667,476.163 366.5,491.5C 378.167,491.5 389.833,491.5 401.5,491.5C 400.88,473.142 400.713,454.808 401,436.5C 396.119,409.546 381.286,390.379 356.5,379C 336.372,373.051 316.038,367.885 295.5,363.5C 285.569,388.034 275.069,412.367 264,436.5C 258.838,442.723 253.338,443.056 247.5,437.5C 236.591,412.684 225.424,388.017 214,363.5C 193.735,368.076 173.568,373.243 153.5,379C 129.606,390.565 115.106,409.398 110,435.5C 109.5,454.164 109.333,472.83 109.5,491.5C 121.167,491.5 132.833,491.5 144.5,491.5C 144.333,476.163 144.5,460.83 145,445.5C 147.672,438.499 152.505,436.332 159.5,439C 161.81,440.637 163.31,442.804 164,445.5C 164.5,460.83 164.667,476.163 164.5,491.5C 179.837,491.333 195.17,491.5 210.5,492C 215.762,493.094 218.762,496.26 219.5,501.5C 219.531,506.113 217.531,509.447 213.5,511.5C 173.833,511.5 134.167,511.5 94.5,511.5C 91.2013,509.02 89.3679,505.686 89,501.5C 88.5002,491.506 88.3335,481.506 88.5,471.5C 60.498,471.667 32.498,471.5 4.5,471C 2.63834,469.634 0.971672,468.134 -0.5,466.5C -0.5,438.5 -0.5,410.5 -0.5,382.5C 6.25003,353.579 23.9167,334.746 52.5,326C 63.4784,323.338 74.4784,320.838 85.5,318.5C 85.6657,314.154 85.499,309.821 85,305.5C 69.0535,294.621 59.3868,279.621 56,260.5C 54,240.5 54,220.5 56,200.5C 64.2734,166.102 86.1068,147.769 121.5,145.5C 140.595,146.218 156.929,153.218 170.5,166.5C 191.245,117.292 227.912,97.7917 280.5,108C 309.882,117.882 329.882,137.382 340.5,166.5C 367.761,142.426 397.094,139.593 428.5,158C 442.524,168.872 451.358,183.039 455,200.5C 457,220.5 457,240.5 455,260.5C 451.613,279.621 441.947,294.621 426,305.5C 425.501,309.821 425.334,314.154 425.5,318.5C 440.694,321.549 455.694,325.382 470.5,330C 492.709,340.957 506.375,358.457 511.5,382.5 Z M 176.5,286.5 C 180.646,292.099 184.812,297.766 189,303.5C 195.373,309.542 202.04,315.208 209,320.5C 209.828,324.871 209.661,329.205 208.5,333.5C 202.844,330.172 196.844,327.672 190.5,326C 179.522,323.338 168.522,320.838 157.5,318.5C 157.334,314.154 157.501,309.821 158,305.5C 165.712,300.622 171.879,294.289 176.5,286.5 Z M 333.5,286.5 C 336.968,290.141 340.302,293.974 343.5,298C 346.667,300.5 349.833,303 353,305.5C 353.499,309.821 353.666,314.154 353.5,318.5C 342.478,320.838 331.478,323.338 320.5,326C 313.576,327.879 307.076,330.713 301,334.5C 300.172,329.798 300.338,325.131 301.5,320.5C 315.289,312.046 325.955,300.713 333.5,286.5 Z"/></g>
<g><path style="opacity:1" fill="#f3b754" d="M 241.5,125.5 C 276.248,121.62 301.748,134.954 318,165.5C 322.288,174.431 323.788,183.764 322.5,193.5C 311.5,187 300.5,180.5 289.5,174C 284.959,171.301 280.292,170.968 275.5,173C 264.225,186.807 249.892,195.807 232.5,200C 217.54,201.376 202.54,201.876 187.5,201.5C 186.54,162.491 204.54,137.157 241.5,125.5 Z"/></g>
<g><path style="opacity:1" fill="#85858f" d="M 111.5,166.5 C 135.541,163.933 153.041,173.266 164,194.5C 164.788,196.165 165.122,197.831 165,199.5C 136.991,214.454 107.158,219.787 75.5,215.5C 76.0462,190.636 88.0462,174.303 111.5,166.5 Z"/></g>
<g><path style="opacity:1" fill="#85858f" d="M 380.5,166.5 C 408.544,164.586 426.711,176.92 435,203.5C 435.499,207.486 435.666,211.486 435.5,215.5C 404.091,219.821 374.424,214.655 346.5,200C 346.034,196.692 346.867,193.525 349,190.5C 356.214,178.111 366.714,170.111 380.5,166.5 Z"/></g>
<g><path style="opacity:1" fill="#fccbaa" d="M 188.5,252.5 C 188.5,242.5 188.5,232.5 188.5,222.5C 198.681,222.827 208.681,222.494 218.5,221.5C 236.522,220.659 253.189,215.492 268.5,206C 273.668,202.325 278.668,198.492 283.5,194.5C 297.039,201.52 310.206,209.186 323,217.5C 328.059,243.488 323.059,267.154 308,288.5C 281.591,315.43 251.758,319.93 218.5,302C 201.216,289.935 191.216,273.435 188.5,252.5 Z"/></g>
<g><path style="opacity:1" fill="#fccbaa" d="M 164.5,221.5 C 165.5,221.5 166.5,221.5 167.5,221.5C 167.666,231.839 167.5,242.172 167,252.5C 164.169,274.666 152.002,288.833 130.5,295C 102.503,297.424 84.3367,285.257 76,258.5C 75.5003,250.841 75.3336,243.174 75.5,235.5C 102.08,237.602 128.08,234.769 153.5,227C 157.402,225.435 161.069,223.602 164.5,221.5 Z"/></g>
<g><path style="opacity:1" fill="#d4ab8f" d="M 218.5,221.5 C 208.681,222.494 198.681,222.827 188.5,222.5C 188.5,232.5 188.5,242.5 188.5,252.5C 187.506,242.347 187.172,232.014 187.5,221.5C 197.833,221.5 208.167,221.5 218.5,221.5 Z"/></g>
<g><path style="opacity:1" fill="#fccbaa" d="M 343.5,221.5 C 372.816,234.488 403.483,239.155 435.5,235.5C 439.113,258.995 431.113,277.162 411.5,290C 384.463,301.21 363.296,294.376 348,269.5C 345.635,264.072 344.301,258.405 344,252.5C 343.5,242.172 343.334,231.839 343.5,221.5 Z"/></g>
<g><path style="opacity:1" fill="#080605" d="M 219.5,230.5 C 228.699,230.859 232.532,235.526 231,244.5C 227.945,249.635 223.445,251.468 217.5,250C 210.333,242.518 211,236.018 219.5,230.5 Z"/></g>
<g><path style="opacity:1" fill="#090706" d="M 286.5,230.5 C 295.699,230.859 299.532,235.526 298,244.5C 294.945,249.635 290.445,251.468 284.5,250C 279.782,246.657 278.282,242.157 280,236.5C 281.494,233.686 283.66,231.686 286.5,230.5 Z"/></g>
<g><path style="opacity:1" fill="#050403" d="M 239.5,264.5 C 241.199,264.34 242.866,264.506 244.5,265C 248.086,266.767 251.752,268.267 255.5,269.5C 258.566,268.798 261.233,267.298 263.5,265C 274.829,263.864 278.995,268.698 276,279.5C 267.703,288.594 257.536,291.427 245.5,288C 240.573,286.125 236.74,282.958 234,278.5C 232.025,272.177 233.858,267.51 239.5,264.5 Z"/></g>
<g><path style="opacity:1" fill="#fcb185" d="M 106.5,314.5 C 116.494,315.76 126.494,315.76 136.5,314.5C 136.666,319.179 136.499,323.845 136,328.5C 131.437,339.958 126.604,351.291 121.5,362.5C 116.383,351.324 111.549,339.99 107,328.5C 106.501,323.845 106.334,319.179 106.5,314.5 Z"/></g>
<g><path style="opacity:1" fill="#fcb185" d="M 374.5,314.5 C 384.494,315.76 394.494,315.76 404.5,314.5C 404.666,319.179 404.499,323.845 404,328.5C 399.437,339.958 394.604,351.291 389.5,362.5C 384.383,351.324 379.549,339.99 375,328.5C 374.501,323.845 374.334,319.179 374.5,314.5 Z"/></g>
<g><path style="opacity:1" fill="#fcb285" d="M 230.5,329.5 C 247.143,333.477 263.809,333.477 280.5,329.5C 280.666,336.508 280.5,343.508 280,350.5C 272.311,369.076 264.144,387.41 255.5,405.5C 247.076,387.649 238.909,369.649 231,351.5C 230.5,344.174 230.334,336.841 230.5,329.5 Z"/></g>
<g><path style="opacity:1" fill="#77d0f8" d="M 85.5,338.5 C 87.1439,338.286 88.6439,338.62 90,339.5C 96.7795,355.392 103.28,371.392 109.5,387.5C 99.0045,401.807 92.5045,417.807 90,435.5C 89.5006,440.823 89.334,446.156 89.5,451.5C 79.5,451.5 69.5,451.5 59.5,451.5C 59.6666,435.497 59.4999,419.497 59,403.5C 55.2519,397.458 50.0852,395.958 43.5,399C 42.2125,400.41 41.0458,401.91 40,403.5C 39.5001,419.497 39.3334,435.497 39.5,451.5C 32.8333,451.5 26.1667,451.5 19.5,451.5C 19.3334,429.497 19.5,407.497 20,385.5C 23.6224,369.746 32.4557,357.913 46.5,350C 59.5381,345.95 72.5381,342.117 85.5,338.5 Z"/></g>
<g><path style="opacity:1" fill="#74cbf2" d="M 153.5,338.5 C 166.305,341.035 178.972,344.201 191.5,348C 180.997,351.051 170.331,353.718 159.5,356C 154.636,357.343 149.969,359.177 145.5,361.5C 144.417,360.635 144.251,359.635 145,358.5C 147.938,351.845 150.771,345.178 153.5,338.5 Z"/></g>
<g><path style="opacity:1" fill="#9cd163" d="M 353.5,338.5 C 355.144,338.286 356.644,338.62 358,339.5C 360.472,345.915 363.138,352.248 366,358.5C 366.749,359.635 366.583,360.635 365.5,361.5C 349.921,356.524 334.254,352.024 318.5,348C 330.302,344.881 341.969,341.714 353.5,338.5 Z"/></g>
<g><path style="opacity:1" fill="#a4da68" d="M 421.5,338.5 C 435.349,341.212 449.015,344.712 462.5,349C 477.87,356.57 487.37,368.736 491,385.5C 491.5,407.497 491.667,429.497 491.5,451.5C 484.833,451.5 478.167,451.5 471.5,451.5C 471.667,435.497 471.5,419.497 471,403.5C 467.252,397.458 462.085,395.958 455.5,399C 454.213,400.41 453.046,401.91 452,403.5C 451.5,419.497 451.333,435.497 451.5,451.5C 441.5,451.5 431.5,451.5 421.5,451.5C 422.258,427.671 415.258,406.504 400.5,388C 407.644,371.547 414.644,355.047 421.5,338.5 Z"/></g>
<g><path style="opacity:1" fill="#fd5959" d="M 287.5,501.5 C 280.167,501.5 272.833,501.5 265.5,501.5C 262.949,492.265 257.283,489.765 248.5,494C 246.501,496.255 245.168,498.755 244.5,501.5C 236.167,501.5 227.833,501.5 219.5,501.5C 218.762,496.26 215.762,493.094 210.5,492C 195.17,491.5 179.837,491.333 164.5,491.5C 164.667,476.163 164.5,460.83 164,445.5C 163.31,442.804 161.81,440.637 159.5,439C 152.505,436.332 147.672,438.499 145,445.5C 144.5,460.83 144.333,476.163 144.5,491.5C 132.833,491.5 121.167,491.5 109.5,491.5C 109.333,472.83 109.5,454.164 110,435.5C 115.106,409.398 129.606,390.565 153.5,379C 173.568,373.243 193.735,368.076 214,363.5C 225.424,388.017 236.591,412.684 247.5,437.5C 253.338,443.056 258.838,442.723 264,436.5C 275.069,412.367 285.569,388.034 295.5,363.5C 316.038,367.885 336.372,373.051 356.5,379C 381.286,390.379 396.119,409.546 401,436.5C 400.713,454.808 400.88,473.142 401.5,491.5C 389.833,491.5 378.167,491.5 366.5,491.5C 366.667,476.163 366.5,460.83 366,445.5C 365.31,442.804 363.81,440.637 361.5,439C 354.486,436.337 349.653,438.504 347,445.5C 346.5,460.83 346.333,476.163 346.5,491.5C 329.497,491.333 312.497,491.5 295.5,492C 290.838,493.495 288.172,496.661 287.5,501.5 Z"/></g>
<g><path style="opacity:0.941" fill="#030100" d="M 265.5,501.5 C 265.531,506.113 263.531,509.447 259.5,511.5C 256.5,511.5 253.5,511.5 250.5,511.5C 247.283,508.939 245.283,505.605 244.5,501.5C 245.168,498.755 246.501,496.255 248.5,494C 257.283,489.765 262.949,492.265 265.5,501.5 Z"/></g>
</svg>
