<?xml version="1.0" encoding="UTF-8"?>
<!DOCTYPE svg PUBLIC "-//W3C//DTD SVG 1.1//EN" "http://www.w3.org/Graphics/SVG/1.1/DTD/svg11.dtd">
<svg xmlns="http://www.w3.org/2000/svg" version="1.1" width="512px" height="512px" style="shape-rendering:geometricPrecision; text-rendering:geometricPrecision; image-rendering:optimizeQuality; fill-rule:evenodd; clip-rule:evenodd" xmlns:xlink="http://www.w3.org/1999/xlink">
<g><path style="opacity:0.963" fill="#030201" d="M -0.5,412.5 C -0.5,389.167 -0.5,365.833 -0.5,342.5C 0.331871,322.337 0.831871,302.004 1,281.5C 1.55461,271.305 6.38795,264.139 15.5,260C 22.4705,258.319 29.4705,256.819 36.5,255.5C 43.4299,229.874 50.2632,204.207 57,178.5C 61.6907,169.473 68.1907,161.973 76.5,156C 61.9309,147.892 54.5976,135.392 54.5,118.5C 55.0087,109.412 56.1754,100.412 58,91.5C 59.3428,87.4904 61.5095,83.9904 64.5,81C 63.8095,79.9326 63.3095,78.7659 63,77.5C 62.3333,61.1667 62.3333,44.8333 63,28.5C 63.6678,24.5013 65.8345,21.668 69.5,20C 94.7473,18.071 120.081,18.071 145.5,20C 149.127,20.5637 152.293,22.0637 155,24.5C 156.115,31.9256 156.615,39.4256 156.5,47C 156.145,57.179 155.978,67.3457 156,77.5C 162.079,86.1386 164.913,95.8053 164.5,106.5C 164.609,121.003 160.775,134.336 153,146.5C 151.167,148.333 149.333,150.167 147.5,152C 156.454,156.289 162.621,163.123 166,172.5C 172.778,200.224 177.945,228.224 181.5,256.5C 192.929,256.871 204.262,258.037 215.5,260C 220.757,262.256 224.257,266.09 226,271.5C 226.965,284.441 225.632,297.108 222,309.5C 220.062,312.106 217.562,313.939 214.5,315C 209.233,316.191 203.899,316.691 198.5,316.5C 199.147,341.491 198.813,366.491 197.5,391.5C 197.886,408.054 198.886,424.554 200.5,441C 199.767,442.766 199.433,444.599 199.5,446.5C 207.541,446.664 215.541,446.164 223.5,445C 210.898,440.479 206.398,431.979 210,419.5C 214.878,414.818 220.711,412.818 227.5,413.5C 234.74,389.141 240.907,364.474 246,339.5C 250.556,326.723 255.389,314.056 260.5,301.5C 248.77,293.995 244.603,283.329 248,269.5C 249.783,256.8 251.783,244.134 254,231.5C 259.407,207.708 264.573,183.875 269.5,160C 269.505,156.349 268.505,153.016 266.5,150C 258.102,147.389 250.936,142.889 245,136.5C 243.042,131.41 240.208,126.91 236.5,123C 231.215,122.355 226.715,120.189 223,116.5C 221.139,107.679 224.472,101.679 233,98.5C 233.193,81.6178 239.693,67.7845 252.5,57C 280.401,39.1135 304.901,42.9469 326,68.5C 336.181,90.1194 335.514,111.453 324,132.5C 321.667,135.5 319.333,138.5 317,141.5C 316.333,143.833 316.333,146.167 317,148.5C 326.163,161.158 333.497,174.825 339,189.5C 356.89,208.4 371.223,229.733 382,253.5C 382.982,258.126 383.816,262.792 384.5,267.5C 386.772,268.441 388.772,269.774 390.5,271.5C 394.339,268.894 398.006,269.061 401.5,272C 408.378,280.209 413.544,289.375 417,299.5C 422.494,299.122 427.161,301.122 431,305.5C 444.247,329 458.247,352 473,374.5C 476.783,383.161 478.45,392.161 478,401.5C 473.585,412.249 466.085,420.082 455.5,425C 458.501,431.996 457.834,438.662 453.5,445C 460.876,445.253 468.209,445.919 475.5,447C 481.546,450.097 483.879,455.097 482.5,462C 483.986,482.341 474.652,492.508 454.5,492.5C 425.347,490.462 396.18,490.129 367,491.5C 332.352,490.093 297.685,489.426 263,489.5C 191.966,490.376 120.966,490.709 50,490.5C 38.4255,490.674 26.9255,489.841 15.5,488C 9.13607,486.298 5.63607,482.132 5,475.5C 4.60952,471.486 4.10952,467.486 3.5,463.5C 4.5402,457.19 4.70686,450.857 4,444.5C 2.23273,433.723 0.732733,423.056 -0.5,412.5 Z M 391.5,292.5 C 394.852,297.358 397.852,302.525 400.5,308C 393.667,313.5 386.833,319 380,324.5C 376.708,319.417 373.541,314.25 370.5,309C 374.769,305.031 379.769,302.365 385.5,301C 386.942,297.732 388.942,294.899 391.5,292.5 Z M 347.5,296.5 C 348.779,298.123 350.113,299.79 351.5,301.5C 350.194,305.207 350.36,308.874 352,312.5C 356.633,320.268 361.133,328.101 365.5,336C 362.783,342.56 362.95,349.06 366,355.5C 378.474,382.456 392.474,408.456 408,433.5C 412.44,439.188 418.107,441.188 425,439.5C 425.273,441.329 426.107,442.829 427.5,444C 409.49,444.318 391.49,444.818 373.5,445.5C 373.665,442.15 373.498,438.817 373,435.5C 356.16,393.482 345.993,349.815 342.5,304.5C 343.366,301.308 345.032,298.641 347.5,296.5 Z M 300.5,387.5 C 301.497,387.47 302.164,387.97 302.5,389C 306.526,401.272 309.526,413.772 311.5,426.5C 307.548,429.278 303.714,432.278 300,435.5C 297.965,438.561 296.799,441.895 296.5,445.5C 289.825,445.666 283.158,445.5 276.5,445C 285.684,426.448 293.684,407.281 300.5,387.5 Z"/></g>
<g><path style="opacity:1" fill="#d53131" d="M 97.5,28.5 C 113.876,28.0939 130.21,28.5939 146.5,30C 147.464,34.0659 147.797,38.2325 147.5,42.5C 131.497,42.7309 115.497,43.0642 99.5,43.5C 98.7518,38.5145 98.0851,33.5145 97.5,28.5 Z"/></g>
<g><path style="opacity:1" fill="#b81a1a" d="M 97.5,28.5 C 98.0851,33.5145 98.7518,38.5145 99.5,43.5C 90.2494,43.8178 81.0828,43.4845 72,42.5C 71.3333,38.5 71.3333,34.5 72,30.5C 72.5,30 73,29.5 73.5,29C 81.4931,28.5003 89.4931,28.3336 97.5,28.5 Z"/></g>
<g><path style="opacity:1" fill="#ed9832" d="M 99.5,49.5 C 101.095,52.2854 102.095,55.2854 102.5,58.5C 92.5,58.5 82.5,58.5 72.5,58.5C 72.5,55.5 72.5,52.5 72.5,49.5C 81.5,49.5 90.5,49.5 99.5,49.5 Z"/></g>
<g><path style="opacity:1" fill="#fac54c" d="M 102.5,58.5 C 102.095,55.2854 101.095,52.2854 99.5,49.5C 115.158,48.8444 130.825,48.511 146.5,48.5C 146.5,52.1667 146.5,55.8333 146.5,59.5C 131.657,59.8293 116.99,59.496 102.5,58.5 Z"/></g>
<g><path style="opacity:0.944" fill="#010201" d="M 511.5,120.5 C 511.5,127.833 511.5,135.167 511.5,142.5C 510.855,149.942 506.855,154.442 499.5,156C 485.995,156.536 472.495,156.369 459,155.5C 448.445,155.744 437.945,156.41 427.5,157.5C 426.808,158.025 426.308,158.692 426,159.5C 425.667,167.5 425.333,175.5 425,183.5C 423.456,191.09 419.956,197.59 414.5,203C 408.104,206.493 402.104,205.826 396.5,201C 378.024,181.517 360.858,161.017 345,139.5C 341.169,134.697 340.836,129.697 344,124.5C 360.43,102.833 377.93,82.0001 396.5,62C 408.166,54.7773 416.666,57.6106 422,70.5C 423.578,73.6572 424.578,76.9906 425,80.5C 425.333,88.1667 425.667,95.8333 426,103.5C 426.308,104.308 426.808,104.975 427.5,105.5C 437.926,106.899 448.426,107.566 459,107.5C 472.167,106.863 485.334,106.697 498.5,107C 506.461,108.125 510.794,112.625 511.5,120.5 Z"/></g>
<g><path style="opacity:1" fill="#fadec6" d="M 284.5,105.5 C 285.568,106.434 286.901,106.768 288.5,106.5C 288.896,114.253 288.396,121.92 287,129.5C 284.534,137.146 279.368,141.146 271.5,141.5C 267.393,141.075 263.726,139.575 260.5,137C 266.898,135.088 271.564,131.254 274.5,125.5C 273.904,122.754 272.237,121.92 269.5,123C 264.796,127.857 259.129,130.191 252.5,130C 250.714,129.215 249.214,128.049 248,126.5C 246.669,123.166 244.835,120.166 242.5,117.5C 238.609,116.201 234.942,114.534 231.5,112.5C 234.685,108.984 238.518,106.317 243,104.5C 240.746,87.2149 246.912,74.0483 261.5,65C 267.166,61.4887 273.166,59.1554 279.5,58C 275.82,62.9387 274.653,68.4387 276,74.5C 277.719,78.1073 279.553,81.6073 281.5,85C 277.82,91.0844 277.653,97.2511 281,103.5C 281.816,104.823 282.983,105.489 284.5,105.5 Z"/></g>
<g><path style="opacity:1" fill="#bd1d1d" d="M 72.5,65.5 C 97.1667,65.5 121.833,65.5 146.5,65.5C 146.5,68.1667 146.5,70.8333 146.5,73.5C 121.837,74.2777 97.1704,74.9443 72.5,75.5C 72.5,72.1667 72.5,68.8333 72.5,65.5 Z"/></g>
<g><path style="opacity:1" fill="#7bc165" d="M 499.5,131.5 C 496.417,130.875 493.251,130.542 490,130.5C 457.619,134.307 425.119,135.807 392.5,135C 384.323,133.742 376.656,131.075 369.5,127C 365.653,126.367 361.986,125.533 358.5,124.5C 365.07,115.048 371.904,105.715 379,96.5C 387.305,87.8741 395.139,78.8741 402.5,69.5C 404.452,67.467 406.618,67.1337 409,68.5C 410.439,70.2746 411.439,72.2746 412,74.5C 413.233,84.7749 413.9,95.1082 414,105.5C 415.702,111.864 419.868,115.364 426.5,116C 430.167,116.333 433.833,116.667 437.5,117C 456.873,117.648 476.206,117.315 495.5,116C 497.049,117.214 498.215,118.714 499,120.5C 499.499,124.152 499.665,127.818 499.5,131.5 Z"/></g>
<g><path style="opacity:1" fill="#0c0b0a" d="M 255.5,87.5 C 261.784,86.6189 264.617,89.2856 264,95.5C 260.814,101.717 257.147,102.05 253,96.5C 251.927,92.9003 252.76,89.9003 255.5,87.5 Z"/></g>
<g><path style="opacity:1" fill="#f9dec5" d="M 133.5,147.5 C 129.275,145.85 124.941,144.517 120.5,143.5C 126.019,141.931 128.353,138.431 127.5,133C 124.333,132.465 121.666,133.465 119.5,136C 116.915,137.128 114.248,137.961 111.5,138.5C 107.185,137.261 103.018,135.594 99,133.5C 96.6807,134.409 96.0141,136.075 97,138.5C 100.195,142.51 104.362,144.51 109.5,144.5C 100.249,146.55 92.4156,143.883 86,136.5C 80.8506,128.238 78.0173,119.238 77.5,109.5C 81.7112,102.737 84.5445,95.4036 86,87.5C 92.4549,91.8866 99.6216,93.5532 107.5,92.5C 117.294,93.1118 126.627,91.4451 135.5,87.5C 137.158,97.9856 141.825,106.819 149.5,114C 150.448,114.483 151.448,114.649 152.5,114.5C 152.306,125.924 148.306,135.757 140.5,144C 138.423,145.705 136.09,146.872 133.5,147.5 Z"/></g>
<g><path style="opacity:1" fill="#e9c5a8" d="M 271.5,141.5 C 279.368,141.146 284.534,137.146 287,129.5C 288.396,121.92 288.896,114.253 288.5,106.5C 286.901,106.768 285.568,106.434 284.5,105.5C 290.097,105.371 295.097,103.538 299.5,100C 309.25,98.4154 312.416,102.249 309,111.5C 307.562,112.718 305.895,113.385 304,113.5C 301.12,112.644 298.287,111.644 295.5,110.5C 292.754,111.096 291.92,112.763 293,115.5C 302.059,122.852 309.892,121.685 316.5,112C 318.5,111.333 320.5,111.333 322.5,112C 314.951,138.435 297.951,148.269 271.5,141.5 Z"/></g>
<g><path style="opacity:1" fill="#0c0a09" d="M 89.5,103.5 C 96.6319,103.802 99.4652,107.469 98,114.5C 93.8796,118.423 89.8796,118.423 86,114.5C 84.6624,109.96 85.8291,106.293 89.5,103.5 Z"/></g>
<g><path style="opacity:1" fill="#0f0e0c" d="M 128.5,103.5 C 136.52,104.024 139.02,108.024 136,115.5C 129.699,120.266 125.866,118.766 124.5,111C 124.667,109.833 124.833,108.667 125,107.5C 126.376,106.295 127.542,104.962 128.5,103.5 Z"/></g>
<g><path style="opacity:1" fill="#ebc6a9" d="M 77.5,109.5 C 78.0173,119.238 80.8506,128.238 86,136.5C 92.4156,143.883 100.249,146.55 109.5,144.5C 113.215,144.577 116.881,144.244 120.5,143.5C 124.941,144.517 129.275,145.85 133.5,147.5C 128.871,149.873 123.871,151.373 118.5,152C 103.405,154.687 89.4048,152.021 76.5,144C 69.0191,137.873 65.1858,130.04 65,120.5C 69.9793,117.683 74.1459,114.016 77.5,109.5 Z"/></g>
<g><path style="opacity:1" fill="#100f0d" d="M 115.5,120.5 C 118.244,121.072 119.077,122.738 118,125.5C 115.032,127.991 111.865,128.157 108.5,126C 107.62,124.644 107.286,123.144 107.5,121.5C 110.385,121.806 113.052,121.473 115.5,120.5 Z"/></g>
<g><path style="opacity:1" fill="#5aa33e" d="M 358.5,124.5 C 361.986,125.533 365.653,126.367 369.5,127C 376.656,131.075 384.323,133.742 392.5,135C 425.119,135.807 457.619,134.307 490,130.5C 493.251,130.542 496.417,130.875 499.5,131.5C 499.665,135.182 499.499,138.848 499,142.5C 498.215,144.286 497.049,145.786 495.5,147C 472.847,146.477 450.18,146.477 427.5,147C 420.763,147.769 416.263,151.269 414,157.5C 413.667,166.5 413.333,175.5 413,184.5C 412.152,187.56 411.152,190.56 410,193.5C 407.716,195.984 405.216,196.151 402.5,194C 397.921,187.697 392.754,181.864 387,176.5C 377.769,162.601 367.769,149.268 357,136.5C 353.334,131.866 353.834,127.866 358.5,124.5 Z"/></g>
<g><path style="opacity:1" fill="#0e0d0b" d="M 120.5,143.5 C 116.881,144.244 113.215,144.577 109.5,144.5C 104.362,144.51 100.195,142.51 97,138.5C 96.0141,136.075 96.6807,134.409 99,133.5C 103.018,135.594 107.185,137.261 111.5,138.5C 114.248,137.961 116.915,137.128 119.5,136C 121.666,133.465 124.333,132.465 127.5,133C 128.353,138.431 126.019,141.931 120.5,143.5 Z"/></g>
<g><path style="opacity:1" fill="#e3bfa3" d="M 304.5,148.5 C 305.497,148.47 306.164,148.97 306.5,150C 305.513,153.653 303.18,155.987 299.5,157C 292.088,159.849 284.422,161.349 276.5,161.5C 276.5,158.5 276.5,155.5 276.5,152.5C 282.176,152.666 287.843,152.499 293.5,152C 297.491,151.502 301.158,150.335 304.5,148.5 Z"/></g>
<g><path style="opacity:1" fill="#f9c44c" d="M 104.5,173.5 C 103.737,172.732 102.737,172.232 101.5,172C 103.123,169.92 104.623,167.754 106,165.5C 108.378,164.033 110.878,163.033 113.5,162.5C 121.572,161.919 129.406,160.252 137,157.5C 140.724,158.905 143.391,161.239 145,164.5C 139.972,169.098 134.139,172.265 127.5,174C 119.798,174.731 112.131,174.564 104.5,173.5 Z"/></g>
<g><path style="opacity:1" fill="#e59531" d="M 113.5,162.5 C 110.878,163.033 108.378,164.033 106,165.5C 104.623,167.754 103.123,169.92 101.5,172C 102.737,172.232 103.737,172.732 104.5,173.5C 95.416,172.419 87.416,168.919 80.5,163C 82.0218,161.478 83.5218,159.978 85,158.5C 94.2106,161.729 103.711,163.062 113.5,162.5 Z"/></g>
<g><path style="opacity:1" fill="#126db7" d="M 300.5,181.5 C 298.458,176.76 296.458,172.093 294.5,167.5C 301.479,166.331 307.645,163.331 313,158.5C 316.563,165.959 320.397,173.293 324.5,180.5C 324.167,180.833 323.833,181.167 323.5,181.5C 315.817,178.883 308.15,178.883 300.5,181.5 Z"/></g>
<g><path style="opacity:1" fill="#1088c9" d="M 294.5,167.5 C 296.458,172.093 298.458,176.76 300.5,181.5C 291.833,186.303 288.666,193.637 291,203.5C 291.725,205.949 292.725,208.283 294,210.5C 297.088,213.081 299.588,216.081 301.5,219.5C 305.164,232.584 306.331,245.917 305,259.5C 301.857,271.762 299.024,284.095 296.5,296.5C 285.266,297.086 274.599,294.92 264.5,290C 262.19,288.363 260.69,286.196 260,283.5C 260.485,253.294 264.818,223.628 273,194.5C 274.588,186.217 275.755,177.884 276.5,169.5C 282.58,169.483 288.58,168.817 294.5,167.5 Z"/></g>
<g><path style="opacity:1" fill="#ba1a1a" d="M 90.5,177.5 C 79.3521,182.753 72.1854,191.42 69,203.5C 65.6509,220.188 64.8176,236.854 66.5,253.5C 60.3337,254.398 54.0003,255.064 47.5,255.5C 53.2915,232.999 58.4581,210.332 63,187.5C 64.9033,179.348 69.07,172.681 75.5,167.5C 79.6312,172.071 84.6312,175.404 90.5,177.5 Z"/></g>
<g><path style="opacity:1" fill="#d53131" d="M 150.5,169.5 C 151.496,169.414 152.329,169.748 153,170.5C 155.427,174.54 157.094,178.874 158,183.5C 162.865,207.72 167.031,232.053 170.5,256.5C 164.167,256.5 157.833,256.5 151.5,256.5C 150.291,244.993 148.124,233.66 145,222.5C 142.2,220.882 140.7,221.715 140.5,225C 141.439,235.138 141.773,245.304 141.5,255.5C 136.167,255.5 130.833,255.5 125.5,255.5C 123.884,230.864 123.217,206.197 123.5,181.5C 134.157,180.958 143.157,176.958 150.5,169.5 Z"/></g>
<g><path style="opacity:1" fill="#d93232" d="M 90.5,177.5 C 93.643,178.037 96.643,179.037 99.5,180.5C 100.792,186.206 100.625,191.873 99,197.5C 98.5001,215.497 98.3334,233.497 98.5,251.5C 92.9262,253.453 86.9262,254.12 80.5,253.5C 80.8898,243.463 80.8898,233.463 80.5,223.5C 78.8539,224.779 77.6872,226.445 77,228.5C 74.4826,236.622 73.316,244.955 73.5,253.5C 71.1667,253.5 68.8333,253.5 66.5,253.5C 64.8176,236.854 65.6509,220.188 69,203.5C 72.1854,191.42 79.3521,182.753 90.5,177.5 Z"/></g>
<g><path style="opacity:1" fill="#f6c24b" d="M 106.5,181.5 C 110.154,181.942 113.821,182.276 117.5,182.5C 116.449,206.808 116.449,231.142 117.5,255.5C 113.743,255.929 110.243,255.263 107,253.5C 105.205,229.517 105.039,205.517 106.5,181.5 Z"/></g>
<g><path style="opacity:1" fill="#1270bc" d="M 358.5,280.5 C 356.833,255.484 347.666,233.484 331,214.5C 322.631,206.298 314.464,197.965 306.5,189.5C 314.546,187.997 321.88,189.83 328.5,195C 347.385,212.931 362.218,233.764 373,257.5C 375.242,269.691 370.409,277.357 358.5,280.5 Z"/></g>
<g><path style="opacity:1" fill="#1088c9" d="M 306.5,189.5 C 314.464,197.965 322.631,206.298 331,214.5C 347.666,233.484 356.833,255.484 358.5,280.5C 355.635,281.783 352.635,281.783 349.5,280.5C 346.948,270.349 343.115,260.683 338,251.5C 325.712,235.544 313.046,219.877 300,204.5C 296.725,197.057 298.891,192.057 306.5,189.5 Z"/></g>
<g><path style="opacity:1" fill="#1271bd" d="M 301.5,219.5 C 310.736,232.278 320.236,244.944 330,257.5C 333.964,267.04 337.464,276.706 340.5,286.5C 338.569,290.927 335.236,293.761 330.5,295C 319.221,296.383 307.888,296.883 296.5,296.5C 299.024,284.095 301.857,271.762 305,259.5C 306.331,245.917 305.164,232.584 301.5,219.5 Z"/></g>
<g><path style="opacity:1" fill="#621617" d="M 98.5,251.5 C 99.404,252.209 99.7373,253.209 99.5,254.5C 92.9779,254.823 86.6446,254.49 80.5,253.5C 86.9262,254.12 92.9262,253.453 98.5,251.5 Z"/></g>
<g><path style="opacity:1" fill="#e88c4d" d="M 212.5,301.5 C 208.951,296.889 204.285,294.056 198.5,293C 161.813,294.013 125.146,293.346 88.5,291C 77.1291,290.881 67.2957,287.047 59,279.5C 56.5186,274.99 56.0186,270.323 57.5,265.5C 75.3286,264.338 93.3286,264.171 111.5,265C 143.173,266.187 174.84,267.52 206.5,269C 210.438,269.214 213.272,271.047 215,274.5C 215.451,283.743 214.617,292.743 212.5,301.5 Z"/></g>
<g><path style="opacity:1" fill="#c86a3c" d="M 57.5,265.5 C 56.0186,270.323 56.5186,274.99 59,279.5C 67.2957,287.047 77.1291,290.881 88.5,291C 125.146,293.346 161.813,294.013 198.5,293C 204.285,294.056 208.951,296.889 212.5,301.5C 211.657,303.173 210.324,304.34 208.5,305C 154.84,308.12 101.173,308.286 47.5,305.5C 35.4926,305.689 23.4926,306.022 11.5,306.5C 11.1473,297.109 11.6473,287.775 13,278.5C 15.9376,272.442 20.7709,268.942 27.5,268C 37.4202,266.177 47.4202,265.343 57.5,265.5 Z"/></g>
<g><path style="opacity:1" fill="#f4d9c1" d="M 379.5,274.5 C 385.064,277.064 386.898,281.397 385,287.5C 382.556,289.556 380.723,292.056 379.5,295C 376.899,295.92 374.232,296.587 371.5,297C 367.934,303.155 364.934,302.822 362.5,296C 359.81,295.229 357.144,294.396 354.5,293.5C 355.04,292.252 355.707,291.085 356.5,290C 366.58,288.301 374.247,283.135 379.5,274.5 Z"/></g>
<g><path style="opacity:1" fill="#e59330" d="M 393.5,277.5 C 395.722,277.178 397.556,277.845 399,279.5C 403.189,285.877 406.855,292.544 410,299.5C 410.798,301.259 410.631,302.926 409.5,304.5C 408.391,305.59 407.391,305.59 406.5,304.5C 403.263,297.772 399.429,291.439 395,285.5C 394.433,282.832 393.933,280.166 393.5,277.5 Z"/></g>
<g><path style="opacity:1" fill="#767572" d="M 290.5,307.5 C 296.679,308.167 303.012,308.833 309.5,309.5C 306.829,312.837 304.663,316.504 303,320.5C 295.249,339.417 286.916,358.084 278,376.5C 269.828,389.507 262.161,402.84 255,416.5C 253.933,418.692 252.433,420.358 250.5,421.5C 245.832,420.111 241.165,418.611 236.5,417C 235.426,416.261 234.759,415.261 234.5,414C 240.024,403.772 244.191,392.938 247,381.5C 252.698,356.008 259.032,330.675 266,305.5C 266.519,304.484 267.353,303.818 268.5,303.5C 275.726,305.482 283.059,306.815 290.5,307.5 Z"/></g>
<g><path style="opacity:1" fill="#e19130" d="M 357.5,302.5 C 359.433,304.937 361.6,307.271 364,309.5C 366.993,316.155 370.493,322.488 374.5,328.5C 373.277,329.614 371.944,329.781 370.5,329C 366.294,323.423 362.46,317.59 359,311.5C 357.851,308.607 357.351,305.607 357.5,302.5 Z"/></g>
<g><path style="opacity:1" fill="#61605e" d="M 250.5,421.5 C 252.433,420.358 253.933,418.692 255,416.5C 262.161,402.84 269.828,389.507 278,376.5C 286.916,358.084 295.249,339.417 303,320.5C 304.663,316.504 306.829,312.837 309.5,309.5C 303.012,308.833 296.679,308.167 290.5,307.5C 303.526,307.52 316.526,307.353 329.5,307C 319.102,327.067 308.268,346.9 297,366.5C 289.725,386.324 282.059,405.991 274,425.5C 273.275,426.059 272.442,426.392 271.5,426.5C 264.193,425.569 257.193,423.902 250.5,421.5 Z"/></g>
<g><path style="opacity:1" fill="#fdc74d" d="M 447.5,416.5 C 446.829,411.807 444.995,407.474 442,403.5C 436,398.167 430,392.833 424,387.5C 419.435,380.476 416.435,372.81 415,364.5C 413.743,353.035 411.743,341.701 409,330.5C 407.789,326.721 405.623,323.721 402.5,321.5C 405.754,318.529 409.42,316.029 413.5,314C 415.914,312.115 418.581,311.448 421.5,312C 433.209,332.367 445.709,352.2 459,371.5C 463.392,378.443 466.225,385.943 467.5,394C 467.469,400.394 464.803,405.394 459.5,409C 455.615,411.725 451.615,414.225 447.5,416.5 Z"/></g>
<g><path style="opacity:1" fill="#ca6c3d" d="M 145.5,317.5 C 134.341,318.331 123.007,318.831 111.5,319C 108.761,320.026 106.428,321.526 104.5,323.5C 88.4726,324.889 83.806,332.889 90.5,347.5C 84.2444,351.713 80.2444,357.38 78.5,364.5C 74.8673,374.763 73.7006,385.43 75,396.5C 75.3736,398.491 76.207,400.158 77.5,401.5C 75.6334,409.03 75.1334,416.696 76,424.5C 77.9828,429.809 81.8161,432.976 87.5,434C 95.6616,437.038 102.828,435.538 109,429.5C 111.74,425.353 113.907,421.02 115.5,416.5C 115.577,417.75 116.244,418.583 117.5,419C 129.429,419.715 139.262,424.548 147,433.5C 150.726,438.776 150.226,443.442 145.5,447.5C 123.074,448.761 100.574,449.761 78,450.5C 57.7456,450.189 37.5789,449.355 17.5,448C 14.2007,435.148 12.034,421.982 11,408.5C 10.576,377.831 10.7427,347.164 11.5,316.5C 56.1657,316.943 100.832,317.276 145.5,317.5 Z"/></g>
<g><path style="opacity:1" fill="#e88c4d" d="M 145.5,447.5 C 150.226,443.442 150.726,438.776 147,433.5C 139.262,424.548 129.429,419.715 117.5,419C 116.244,418.583 115.577,417.75 115.5,416.5C 119.706,396.4 121.539,376.066 121,355.5C 119,351.001 115.833,347.668 111.5,345.5C 116.616,340.046 116.782,334.38 112,328.5C 109.83,326.177 107.33,324.51 104.5,323.5C 106.428,321.526 108.761,320.026 111.5,319C 123.007,318.831 134.341,318.331 145.5,317.5C 160.171,317.326 174.838,316.993 189.5,316.5C 187.849,341.98 186.516,367.48 185.5,393C 185.747,407.686 186.413,422.353 187.5,437C 187.167,439.167 186.833,441.333 186.5,443.5C 173.109,447.147 159.442,448.48 145.5,447.5 Z"/></g>
<g><path style="opacity:1" fill="#61605e" d="M 321.5,424.5 C 326.167,424.5 330.833,424.5 335.5,424.5C 334.586,416.851 333.752,409.184 333,401.5C 328.842,385.2 324.842,368.866 321,352.5C 320.623,351.058 319.79,350.058 318.5,349.5C 323.987,339.194 329.487,328.86 335,318.5C 336.705,353.026 343.539,386.526 355.5,419C 355.357,421.151 354.357,422.818 352.5,424C 344.665,424.479 336.832,424.979 329,425.5C 326.31,425.497 323.81,425.164 321.5,424.5 Z"/></g>
<g><path style="opacity:1" fill="#f29c33" d="M 402.5,321.5 C 405.623,323.721 407.789,326.721 409,330.5C 411.743,341.701 413.743,353.035 415,364.5C 416.435,372.81 419.435,380.476 424,387.5C 430,392.833 436,398.167 442,403.5C 444.995,407.474 446.829,411.807 447.5,416.5C 439.515,423.659 430.182,427.825 419.5,429C 405.693,409.234 393.527,388.4 383,366.5C 380.273,360.046 377.273,353.712 374,347.5C 372.798,343.207 373.965,339.707 377.5,337C 385.889,331.811 394.223,326.645 402.5,321.5 Z"/></g>
<g><path style="opacity:1" fill="#080402" d="M 104.5,323.5 C 107.33,324.51 109.83,326.177 112,328.5C 116.782,334.38 116.616,340.046 111.5,345.5C 115.833,347.668 119,351.001 121,355.5C 121.539,376.066 119.706,396.4 115.5,416.5C 113.907,421.02 111.74,425.353 109,429.5C 102.828,435.538 95.6616,437.038 87.5,434C 81.8161,432.976 77.9828,429.809 76,424.5C 75.1334,416.696 75.6334,409.03 77.5,401.5C 79.0905,393.728 81.0905,386.062 83.5,378.5C 80.9642,374.242 79.2975,369.576 78.5,364.5C 80.2444,357.38 84.2444,351.713 90.5,347.5C 83.806,332.889 88.4726,324.889 104.5,323.5 Z"/></g>
<g><path style="opacity:1" fill="#ecba48" d="M 102.5,342.5 C 102.108,338.658 101.108,334.991 99.5,331.5C 102.783,330.045 105.283,331.045 107,334.5C 107.833,338.503 106.333,341.17 102.5,342.5 Z"/></g>
<g><path style="opacity:1" fill="#e69531" d="M 99.5,331.5 C 101.108,334.991 102.108,338.658 102.5,342.5C 96.2636,343.76 93.7636,341.093 95,334.5C 96.129,332.859 97.629,331.859 99.5,331.5 Z"/></g>
<g><path style="opacity:1" fill="#757471" d="M 318.5,349.5 C 319.79,350.058 320.623,351.058 321,352.5C 324.842,368.866 328.842,385.2 333,401.5C 333.752,409.184 334.586,416.851 335.5,424.5C 330.833,424.5 326.167,424.5 321.5,424.5C 317.515,405.893 312.848,387.226 307.5,368.5C 310.42,361.65 314.087,355.317 318.5,349.5 Z"/></g>
<g><path style="opacity:1" fill="#ef9a33" d="M 105.5,354.5 C 106.078,369.642 104.911,384.642 102,399.5C 99.0618,408.712 94.5618,417.045 88.5,424.5C 86.9826,424.489 85.8159,423.823 85,422.5C 84.8333,420.667 84.6667,418.833 84.5,417C 86.3088,404.125 88.3088,391.292 90.5,378.5C 90.9087,374.088 89.9087,370.088 87.5,366.5C 88.0909,364.734 88.9242,363.067 90,361.5C 93.1667,359 96.3333,356.5 99.5,354C 101.712,353.211 103.712,353.378 105.5,354.5 Z"/></g>
<g><path style="opacity:1" fill="#f9c34b" d="M 105.5,354.5 C 111.208,356.056 113.542,359.89 112.5,366C 111.952,380.6 110.452,395.1 108,409.5C 106.429,415.141 103.929,420.307 100.5,425C 96.3874,427.054 92.3874,426.887 88.5,424.5C 94.5618,417.045 99.0618,408.712 102,399.5C 104.911,384.642 106.078,369.642 105.5,354.5 Z"/></g>
<g><path style="opacity:1" fill="#e58a4c" d="M 78.5,364.5 C 79.2975,369.576 80.9642,374.242 83.5,378.5C 81.0905,386.062 79.0905,393.728 77.5,401.5C 76.207,400.158 75.3736,398.491 75,396.5C 73.7006,385.43 74.8673,374.763 78.5,364.5 Z"/></g>
<g><path style="opacity:1" fill="#4b4947" d="M 219.5,422.5 C 223.182,422.335 226.848,422.501 230.5,423C 242.561,427.767 254.894,431.767 267.5,435C 269.354,438.726 268.354,441.392 264.5,443C 261.731,443.863 258.898,444.363 256,444.5C 246.341,442.281 236.841,439.448 227.5,436C 223.131,434.733 219.297,432.567 216,429.5C 215.333,428.5 215.333,427.5 216,426.5C 217.376,425.295 218.542,423.962 219.5,422.5 Z"/></g>
<g><path style="opacity:1" fill="#e19030" d="M 445.5,429.5 C 449.525,433.35 449.192,437.183 444.5,441C 440.082,443.087 436.249,442.254 433,438.5C 432.312,437.668 432.479,437.002 433.5,436.5C 438.188,435.162 442.188,432.829 445.5,429.5 Z"/></g>
<g><path style="opacity:1" fill="#4a4846" d="M 346.5,432.5 C 351.544,432.173 356.544,432.506 361.5,433.5C 362.167,437.5 362.833,441.5 363.5,445.5C 343.845,446.5 324.178,446.833 304.5,446.5C 305.881,440.616 309.547,436.783 315.5,435C 325.991,434.197 336.324,433.364 346.5,432.5 Z"/></g>
<g><path style="opacity:1" fill="#a43e2e" d="M 470.5,463.5 C 469.71,464.609 469.21,465.942 469,467.5C 467.352,466.283 465.519,465.45 463.5,465C 437.171,464.246 410.838,463.746 384.5,463.5C 363.453,463.235 342.453,464.068 321.5,466C 264.167,466.333 206.833,466.667 149.5,467C 111.201,469.283 72.8679,469.949 34.5,469C 27.8638,467.84 21.1971,467.006 14.5,466.5C 13.5269,464.052 13.1936,461.385 13.5,458.5C 15.3084,458.491 16.9751,458.991 18.5,460C 36,460.167 53.5,460.333 71,460.5C 184.49,458.323 297.99,456.656 411.5,455.5C 430.168,455.963 448.834,456.463 467.5,457C 470.145,458.287 471.145,460.453 470.5,463.5 Z"/></g>
<g><path style="opacity:1" fill="#913229" d="M 470.5,463.5 C 471.268,477.567 464.768,483.234 451,480.5C 420.522,478.273 390.022,477.94 359.5,479.5C 330.18,478.278 300.846,477.612 271.5,477.5C 196.331,478.495 121.165,479.495 46,480.5C 36.7536,480.41 27.5869,479.577 18.5,478C 15.2902,474.873 13.9569,471.039 14.5,466.5C 21.1971,467.006 27.8638,467.84 34.5,469C 72.8679,469.949 111.201,469.283 149.5,467C 206.833,466.667 264.167,466.333 321.5,466C 342.453,464.068 363.453,463.235 384.5,463.5C 410.838,463.746 437.171,464.246 463.5,465C 465.519,465.45 467.352,466.283 469,467.5C 469.21,465.942 469.71,464.609 470.5,463.5 Z"/></g>
</svg>
